<svg width="562" height="509" viewBox="0 0 562 509" fill="none" xmlns="http://www.w3.org/2000/svg">
<g opacity="0.4">
<g opacity="0.2">
<path opacity="0.2" d="M74.38 188.209C74.38 191.599 72 193.759 69.05 195.459L6.32999 231.709C3.39999 233.409 1 232.039 1 228.629V201.979C0.998496 200.115 1.48744 198.284 2.41776 196.669C3.34808 195.054 4.687 193.712 6.29999 192.779L69.08 156.479C69.6202 156.165 70.2334 156 70.8578 156C71.4822 156 72.0956 156.164 72.6362 156.476C73.1768 156.789 73.6254 157.238 73.9369 157.779C74.2483 158.32 74.4115 158.934 74.41 159.559V159.559L74.38 188.209Z" fill="black"/>
</g>
<path d="M87.05 167.648C86.9569 166.553 86.6159 165.493 86.0529 164.549C85.4898 163.605 84.7195 162.801 83.8 162.199L82.59 161.498C81.5743 160.986 80.4526 160.719 79.315 160.719C78.1774 160.719 77.0556 160.986 76.04 161.498L14.15 197.268C13.1974 197.89 12.4048 198.727 11.8366 199.712C11.2684 200.697 10.9407 201.803 10.88 202.939V233.329C10.9406 234.463 11.2684 235.567 11.8367 236.55C12.405 237.534 13.1976 238.369 14.15 238.988L15.36 239.689C16.374 240.206 17.4964 240.476 18.635 240.476C19.7736 240.476 20.896 240.206 21.91 239.689L21.63 239.818L48.78 224.219C49.2383 223.955 49.7246 223.744 50.23 223.589L55.23 228.029L55.61 228.318L58.35 229.868L63.35 232.779C63.9479 233.055 64.6049 233.18 65.2626 233.141C65.9203 233.103 66.5583 232.903 67.12 232.559C68.53 231.739 69.68 229.389 69.68 227.299V215.889C69.7399 214.753 70.0673 213.647 70.6356 212.662C71.2038 211.676 71.9968 210.839 72.95 210.219L83.8 203.979C84.7526 203.357 85.5452 202.52 86.1134 201.535C86.6816 200.55 87.0093 199.444 87.07 198.309V167.889C87.0683 167.808 87.0616 167.728 87.05 167.648V167.648Z" fill="#A016B4"/>
<path opacity="0.25" d="M87.05 167.648C86.9569 166.553 86.6159 165.493 86.0529 164.549C85.4898 163.605 84.7195 162.801 83.8 162.199L82.59 161.498C81.5743 160.986 80.4526 160.719 79.315 160.719C78.1774 160.719 77.0556 160.986 76.04 161.498L14.15 197.268C13.1974 197.89 12.4048 198.727 11.8366 199.712C11.2684 200.697 10.9407 201.803 10.88 202.939V233.329C10.9406 234.463 11.2684 235.567 11.8367 236.55C12.405 237.534 13.1976 238.369 14.15 238.988L15.36 239.689C16.374 240.206 17.4964 240.476 18.635 240.476C19.7736 240.476 20.896 240.206 21.91 239.689L21.63 239.818L48.78 224.219C49.2383 223.955 49.7246 223.744 50.23 223.589L55.23 228.029L55.61 228.318L58.35 229.868L63.35 232.779C63.9479 233.055 64.6049 233.18 65.2626 233.141C65.9203 233.103 66.5583 232.903 67.12 232.559C68.53 231.739 69.68 229.389 69.68 227.299V215.889C69.7399 214.753 70.0673 213.647 70.6356 212.662C71.2038 211.676 71.9968 210.839 72.95 210.219L83.8 203.979C84.7526 203.357 85.5452 202.52 86.1134 201.535C86.6816 200.55 87.0093 199.444 87.07 198.309V167.889C87.0683 167.808 87.0616 167.728 87.05 167.648V167.648Z" fill="black"/>
<path d="M87.07 167.869C87.07 165.779 85.61 164.939 83.8 165.979L21.91 201.749C21.085 202.253 20.3843 202.936 19.86 203.749L12.12 199.289C12.6276 198.48 13.3112 197.796 14.12 197.289L76.01 161.519C77.0236 161.005 78.1439 160.738 79.28 160.738C80.4161 160.738 81.5363 161.005 82.55 161.519L83.77 162.219C84.7261 162.834 85.5233 163.666 86.0968 164.648C86.6702 165.63 87.0037 166.733 87.07 167.869V167.869Z" fill="#A016B4"/>
<path opacity="0.45" d="M87.07 167.869C87.07 165.779 85.61 164.939 83.8 165.979L21.91 201.749C21.085 202.253 20.3843 202.936 19.86 203.749L12.12 199.289C12.6276 198.48 13.3112 197.796 14.12 197.289L76.01 161.519C77.0236 161.005 78.1439 160.738 79.28 160.738C80.4161 160.738 81.5363 161.005 82.55 161.519L83.77 162.219C84.7261 162.834 85.5233 163.666 86.0968 164.648C86.6702 165.63 87.0037 166.733 87.07 167.869V167.869Z" fill="white"/>
<path d="M20.45 239.468C19.39 239.468 19.28 238.288 19.28 237.778V207.388C19.3438 206.367 19.6434 205.374 20.1552 204.487C20.667 203.601 21.3771 202.845 22.23 202.278L84.12 166.558C84.4626 166.342 84.8553 166.218 85.26 166.198C86.32 166.198 86.43 167.378 86.43 167.888V198.278C86.3613 199.305 86.0544 200.301 85.5337 201.188C85.0129 202.075 84.2926 202.828 83.43 203.388L72.58 209.668C71.5288 210.344 70.6544 211.261 70.0298 212.343C69.4053 213.425 69.0487 214.641 68.99 215.888V227.298C68.99 229.148 67.99 231.298 66.75 231.998C66.1759 232.332 65.5239 232.508 64.86 232.508V232.508C64.3102 232.538 63.7688 232.364 63.34 232.018L54.06 223.418C53.4466 222.896 52.6546 222.63 51.85 222.678C50.6371 222.715 49.4534 223.059 48.41 223.678L21.54 239.128C21.2101 239.33 20.8357 239.446 20.45 239.468V239.468Z" fill="#FAFAFA"/>
<path d="M85.26 166.838C85.72 166.838 85.79 167.498 85.79 167.838V198.278C85.7256 199.187 85.4553 200.068 84.9997 200.857C84.544 201.645 83.9149 202.319 83.16 202.828L72.33 209.108C71.1833 209.843 70.2297 210.843 69.5493 212.022C68.8689 213.202 68.4816 214.528 68.42 215.888V227.298C68.4277 228.088 68.2605 228.87 67.9302 229.588C67.6 230.305 67.115 230.941 66.51 231.448C66.03 231.718 65.4902 231.862 64.94 231.868C64.5576 231.898 64.1776 231.787 63.87 231.558L54.59 222.958C53.8553 222.32 52.9022 221.99 51.93 222.038C50.6058 222.068 49.3113 222.436 48.17 223.108L21.3 238.548C21.0541 238.708 20.7723 238.805 20.48 238.828C20.02 238.828 19.95 238.168 19.95 237.828V207.388C20.0144 206.48 20.2847 205.599 20.7403 204.81C21.196 204.022 21.8251 203.348 22.58 202.838L84.47 167.118C84.7159 166.959 84.9977 166.862 85.29 166.838H85.26ZM85.29 165.558C84.7719 165.576 84.2679 165.731 83.83 166.008L21.94 201.718C20.9885 202.341 20.1968 203.178 19.6287 204.163C19.0607 205.148 18.7322 206.253 18.67 207.388V237.778C18.67 239.258 19.4 240.108 20.48 240.108C20.9964 240.09 21.4993 239.938 21.94 239.668L48.81 224.218C49.7566 223.658 50.8304 223.348 51.93 223.318C52.5692 223.278 53.2004 223.478 53.7 223.878L62.98 232.478C63.5333 232.955 64.2513 233.195 64.98 233.148C65.755 233.145 66.5161 232.941 67.19 232.558C68.6 231.738 69.75 229.388 69.75 227.298V215.888C69.8099 214.753 70.1373 213.647 70.7056 212.662C71.2738 211.676 72.0668 210.839 73.02 210.218L83.8 203.978C84.7526 203.357 85.5452 202.52 86.1134 201.535C86.6816 200.549 87.0093 199.444 87.07 198.308V167.888C87.07 166.408 86.33 165.558 85.25 165.558H85.29Z" fill="#E6E6E6"/>
<path d="M67.79 190.428C69.87 189.238 71.56 190.208 71.56 192.608C71.4871 193.913 71.1078 195.183 70.4528 196.314C69.7978 197.445 68.8855 198.406 67.79 199.118C65.72 200.318 64.03 199.348 64.03 196.948C64.1018 195.643 64.4795 194.373 65.1327 193.24C65.7858 192.108 66.6961 191.144 67.79 190.428V190.428Z" fill="#455A64"/>
<path d="M52.75 199.108C54.83 197.908 56.51 198.878 56.51 201.278C56.4405 202.584 56.0638 203.856 55.4105 204.989C54.7571 206.122 53.8456 207.084 52.75 207.798C50.67 208.988 48.99 208.018 48.99 205.618C49.061 204.314 49.4385 203.045 50.0917 201.914C50.745 200.783 51.6557 199.822 52.75 199.108Z" fill="#455A64"/>
<path d="M37.7 207.779C39.78 206.579 41.46 207.559 41.46 209.959C41.389 211.263 41.0115 212.532 40.3582 213.663C39.705 214.794 38.7942 215.755 37.7 216.469C35.63 217.669 33.94 216.699 33.94 214.299C34.0118 212.993 34.3895 211.723 35.0427 210.59C35.6958 209.458 36.6061 208.495 37.7 207.779V207.779Z" fill="#455A64"/>
<path d="M193.221 70.4061C192.094 70.83 190.912 71.0893 189.711 71.1761C188.571 71.2698 187.423 71.1614 186.321 70.8561C185.262 70.5538 184.28 70.0287 183.441 69.3161C182.556 68.5485 181.887 67.5625 181.501 66.4561C181.155 65.5989 180.985 64.6806 181.001 63.7561C181.038 62.952 181.189 62.1573 181.451 61.3961C181.712 60.651 182.047 59.9341 182.451 59.2561C182.831 58.5761 183.191 57.9261 183.521 57.3161C183.846 56.7341 184.12 56.1252 184.341 55.4961C184.54 54.9379 184.578 54.335 184.451 53.7561C184.398 53.4816 184.422 53.1977 184.521 52.9361C184.568 52.8142 184.64 52.7038 184.733 52.6123C184.827 52.5209 184.938 52.4506 185.061 52.4061L187.831 51.4061C187.961 51.3517 188.1 51.3236 188.241 51.3236C188.382 51.3236 188.521 51.3517 188.651 51.4061C188.781 51.454 188.897 51.5327 188.989 51.6355C189.081 51.7383 189.147 51.8621 189.181 51.9961C189.476 52.8672 189.588 53.7897 189.511 54.7061C189.438 55.5308 189.253 56.3415 188.961 57.1161C188.693 57.858 188.358 58.5742 187.961 59.2561C187.561 59.9361 187.201 60.5761 186.871 61.1761C186.574 61.7273 186.333 62.3069 186.151 62.9061C185.997 63.4211 186.015 63.972 186.201 64.4761C186.362 64.9211 186.628 65.3207 186.976 65.6411C187.324 65.9614 187.744 66.193 188.201 66.3161C189.339 66.6124 190.544 66.5173 191.621 66.0461C192.612 65.6965 193.471 65.048 194.078 64.1901C194.685 63.3322 195.011 62.3071 195.011 61.2561C195.026 61.0027 195.08 60.7532 195.171 60.5161C195.303 60.2902 195.519 60.125 195.771 60.0561L198.711 58.9561C198.919 58.8711 199.153 58.8711 199.361 58.9561C199.468 59.0012 199.564 59.0681 199.643 59.1525C199.722 59.2369 199.783 59.3369 199.821 59.4461C200.115 60.3804 200.18 61.3715 200.011 62.3361C199.831 63.4421 199.458 64.5081 198.911 65.4861C198.305 66.5586 197.532 67.5275 196.621 68.3561C195.635 69.2579 194.479 69.9547 193.221 70.4061V70.4061ZM184.031 50.2861C183.904 50.3426 183.766 50.3718 183.626 50.3718C183.487 50.3718 183.349 50.3426 183.221 50.2861C183.096 50.2314 182.984 50.1516 182.891 50.0519C182.798 49.9522 182.727 49.8345 182.681 49.7061L181.481 46.5061C181.426 46.38 181.398 46.2438 181.398 46.1061C181.398 45.9685 181.426 45.8323 181.481 45.7061C181.535 45.5795 181.614 45.4653 181.714 45.3707C181.814 45.276 181.932 45.203 182.061 45.1561L185.191 43.9861C185.317 43.9311 185.453 43.9026 185.591 43.9026C185.729 43.9026 185.865 43.9311 185.991 43.9861C186.118 44.0398 186.232 44.119 186.327 44.2188C186.421 44.3186 186.494 44.4368 186.541 44.5661L187.741 47.7661C187.796 47.8923 187.825 48.0285 187.825 48.1661C187.825 48.3038 187.796 48.44 187.741 48.5661C187.686 48.6937 187.606 48.8086 187.504 48.9033C187.402 48.998 187.282 49.0704 187.151 49.1161L184.031 50.2861Z" fill="white"/>
<g opacity="0.2">
<path opacity="0.2" d="M193.221 70.4061C192.094 70.83 190.912 71.0893 189.711 71.1761C188.571 71.2698 187.423 71.1614 186.321 70.8561C185.262 70.5538 184.28 70.0287 183.441 69.3161C182.556 68.5485 181.887 67.5625 181.501 66.4561C181.155 65.5989 180.985 64.6806 181.001 63.7561C181.038 62.952 181.189 62.1573 181.451 61.3961C181.712 60.651 182.047 59.9341 182.451 59.2561C182.831 58.5761 183.191 57.9261 183.521 57.3161C183.846 56.7341 184.12 56.1252 184.341 55.4961C184.54 54.9379 184.578 54.335 184.451 53.7561C184.398 53.4816 184.422 53.1977 184.521 52.9361C184.568 52.8142 184.64 52.7038 184.733 52.6123C184.827 52.5209 184.938 52.4506 185.061 52.4061L187.831 51.4061C187.961 51.3517 188.1 51.3236 188.241 51.3236C188.382 51.3236 188.521 51.3517 188.651 51.4061C188.781 51.454 188.897 51.5327 188.989 51.6355C189.081 51.7383 189.147 51.8621 189.181 51.9961C189.476 52.8672 189.588 53.7897 189.511 54.7061C189.438 55.5308 189.253 56.3415 188.961 57.1161C188.693 57.858 188.358 58.5742 187.961 59.2561C187.561 59.9361 187.201 60.5761 186.871 61.1761C186.574 61.7273 186.333 62.3069 186.151 62.9061C185.997 63.4211 186.015 63.972 186.201 64.4761C186.362 64.9211 186.628 65.3207 186.976 65.6411C187.324 65.9614 187.744 66.193 188.201 66.3161C189.339 66.6124 190.544 66.5173 191.621 66.0461C192.612 65.6965 193.471 65.048 194.078 64.1901C194.685 63.3322 195.011 62.3071 195.011 61.2561C195.026 61.0027 195.08 60.7532 195.171 60.5161C195.303 60.2902 195.519 60.125 195.771 60.0561L198.711 58.9561C198.919 58.8711 199.153 58.8711 199.361 58.9561C199.468 59.0012 199.564 59.0681 199.643 59.1525C199.722 59.2369 199.783 59.3369 199.821 59.4461C200.115 60.3804 200.18 61.3715 200.011 62.3361C199.831 63.4421 199.458 64.5081 198.911 65.4861C198.305 66.5586 197.532 67.5275 196.621 68.3561C195.635 69.2579 194.479 69.9547 193.221 70.4061V70.4061ZM184.031 50.2861C183.904 50.3426 183.766 50.3718 183.626 50.3718C183.487 50.3718 183.349 50.3426 183.221 50.2861C183.096 50.2314 182.984 50.1516 182.891 50.0519C182.798 49.9522 182.727 49.8345 182.681 49.7061L181.481 46.5061C181.426 46.38 181.398 46.2438 181.398 46.1061C181.398 45.9685 181.426 45.8323 181.481 45.7061C181.535 45.5795 181.614 45.4653 181.714 45.3707C181.814 45.276 181.932 45.203 182.061 45.1561L185.191 43.9861C185.317 43.9311 185.453 43.9026 185.591 43.9026C185.729 43.9026 185.865 43.9311 185.991 43.9861C186.118 44.0398 186.232 44.119 186.327 44.2188C186.421 44.3186 186.494 44.4368 186.541 44.5661L187.741 47.7661C187.796 47.8923 187.825 48.0285 187.825 48.1661C187.825 48.3038 187.796 48.44 187.741 48.5661C187.686 48.6937 187.606 48.8086 187.504 48.9033C187.402 48.998 187.282 49.0704 187.151 49.1161L184.031 50.2861Z" fill="white"/>
</g>
<path d="M214.811 23.0661C215.085 22.8817 215.42 22.8129 215.744 22.8747C216.068 22.9365 216.355 23.124 216.541 23.3961L218.811 26.7461C218.988 27.0219 219.052 27.3551 218.991 27.6769C218.93 27.9987 218.747 28.2848 218.481 28.4761L215.201 30.6961C214.925 30.873 214.592 30.9373 214.27 30.876C213.948 30.8146 213.662 30.6321 213.471 30.3661L211.201 27.0061C211.108 26.8722 211.044 26.7203 211.013 26.5602C210.982 26.4 210.985 26.2351 211.021 26.0761C211.046 25.9149 211.106 25.7609 211.195 25.6247C211.285 25.4884 211.403 25.3729 211.541 25.2861L214.811 23.0661ZM198.631 2.44613C199.809 1.64624 201.095 1.01983 202.451 0.586132C203.74 0.158168 205.094 -0.038199 206.451 0.00613024C207.754 0.0710266 209.029 0.411873 210.191 1.00613C211.413 1.65164 212.446 2.60251 213.191 3.76612C213.83 4.66601 214.28 5.6868 214.511 6.76612C214.7 7.70037 214.75 8.65721 214.661 9.60612C214.573 10.5328 214.403 11.4499 214.151 12.3461L213.441 14.8761C213.23 15.6353 213.086 16.4117 213.011 17.1961C212.945 17.8832 213.069 18.5753 213.371 19.1961C213.507 19.5107 213.555 19.8563 213.511 20.1961C213.493 20.352 213.441 20.5019 213.358 20.6351C213.275 20.7682 213.163 20.8813 213.031 20.9661L210.141 22.9661C210.004 23.0606 209.849 23.127 209.686 23.1613C209.523 23.1956 209.355 23.1973 209.191 23.1661C209.028 23.1488 208.871 23.0913 208.735 22.9989C208.599 22.9064 208.487 22.7818 208.411 22.6361C207.834 21.7225 207.446 20.7024 207.271 19.6361C207.141 18.6671 207.141 17.6851 207.271 16.7161C207.386 15.7814 207.58 14.8581 207.851 13.9561C208.121 13.0761 208.361 12.2361 208.571 11.4461C208.761 10.7298 208.878 9.99606 208.921 9.25613C208.957 8.61748 208.781 7.98487 208.421 7.45613C208.11 6.98789 207.69 6.60218 207.197 6.33218C206.704 6.06218 206.153 5.91597 205.591 5.90612C204.198 5.87816 202.835 6.31829 201.721 7.15612C200.673 7.83344 199.862 8.82063 199.402 9.98028C198.941 11.1399 198.854 12.4143 199.151 13.6261C199.205 13.9237 199.205 14.2286 199.151 14.5261C199.061 14.8198 198.86 15.0671 198.591 15.2161L195.501 17.3061C195.286 17.4579 195.021 17.519 194.761 17.4761C194.627 17.4517 194.499 17.4 194.386 17.3244C194.272 17.2487 194.175 17.1506 194.101 17.0361C193.506 16.0404 193.163 14.9145 193.101 13.7561C192.995 12.43 193.127 11.0957 193.491 9.81613C193.89 8.41279 194.511 7.08253 195.331 5.87613C196.188 4.5131 197.31 3.33642 198.631 2.41613V2.44613Z" fill="white"/>
<g opacity="0.6">
<path opacity="0.6" d="M214.811 23.0661C215.085 22.8817 215.42 22.8129 215.744 22.8747C216.068 22.9365 216.355 23.124 216.541 23.3961L218.811 26.7461C218.988 27.0219 219.052 27.3551 218.991 27.6769C218.93 27.9987 218.747 28.2848 218.481 28.4761L215.201 30.6961C214.925 30.873 214.592 30.9373 214.27 30.876C213.948 30.8146 213.662 30.6321 213.471 30.3661L211.201 27.0061C211.108 26.8722 211.044 26.7203 211.013 26.5602C210.982 26.4 210.985 26.2351 211.021 26.0761C211.046 25.9149 211.106 25.7609 211.195 25.6247C211.285 25.4884 211.403 25.3729 211.541 25.2861L214.811 23.0661ZM198.631 2.44613C199.809 1.64624 201.095 1.01983 202.451 0.586132C203.74 0.158168 205.094 -0.038199 206.451 0.00613024C207.754 0.0710266 209.029 0.411873 210.191 1.00613C211.413 1.65164 212.446 2.60251 213.191 3.76612C213.83 4.66601 214.28 5.6868 214.511 6.76612C214.7 7.70037 214.75 8.65721 214.661 9.60612C214.573 10.5328 214.403 11.4499 214.151 12.3461L213.441 14.8761C213.23 15.6353 213.086 16.4117 213.011 17.1961C212.945 17.8832 213.069 18.5753 213.371 19.1961C213.507 19.5107 213.555 19.8563 213.511 20.1961C213.493 20.352 213.441 20.5019 213.358 20.6351C213.275 20.7682 213.163 20.8813 213.031 20.9661L210.141 22.9661C210.004 23.0606 209.849 23.127 209.686 23.1613C209.523 23.1956 209.355 23.1973 209.191 23.1661C209.028 23.1488 208.871 23.0913 208.735 22.9989C208.599 22.9064 208.487 22.7818 208.411 22.6361C207.834 21.7225 207.446 20.7024 207.271 19.6361C207.141 18.6671 207.141 17.6851 207.271 16.7161C207.386 15.7814 207.58 14.8581 207.851 13.9561C208.121 13.0761 208.361 12.2361 208.571 11.4461C208.761 10.7298 208.878 9.99606 208.921 9.25613C208.957 8.61748 208.781 7.98487 208.421 7.45613C208.11 6.98789 207.69 6.60218 207.197 6.33218C206.704 6.06218 206.153 5.91597 205.591 5.90612C204.198 5.87816 202.835 6.31829 201.721 7.15612C200.673 7.83344 199.862 8.82063 199.402 9.98028C198.941 11.1399 198.854 12.4143 199.151 13.6261C199.205 13.9237 199.205 14.2286 199.151 14.5261C199.061 14.8198 198.86 15.0671 198.591 15.2161L195.501 17.3061C195.286 17.4579 195.021 17.519 194.761 17.4761C194.627 17.4517 194.499 17.4 194.386 17.3244C194.272 17.2487 194.175 17.1506 194.101 17.0361C193.506 16.0404 193.163 14.9145 193.101 13.7561C192.995 12.43 193.127 11.0957 193.491 9.81613C193.89 8.41279 194.511 7.08253 195.331 5.87613C196.188 4.5131 197.31 3.33642 198.631 2.41613V2.44613Z" fill="white"/>
</g>
<path d="M312.691 58.1161C312.989 58.2537 313.221 58.502 313.339 58.8082C313.457 59.1145 313.45 59.4546 313.321 59.7561L311.661 63.4562C311.524 63.7565 311.273 63.9903 310.964 64.1065C310.655 64.2226 310.312 64.2117 310.011 64.0761L306.401 62.4562C306.253 62.3912 306.119 62.2964 306.009 62.1777C305.899 62.059 305.815 61.9189 305.761 61.7662C305.694 61.6168 305.659 61.4549 305.659 61.2911C305.659 61.1274 305.694 60.9655 305.761 60.8161L307.421 57.1161C307.488 56.9688 307.583 56.8362 307.701 56.7263C307.82 56.6164 307.959 56.5313 308.111 56.4761C308.26 56.4091 308.422 56.3744 308.586 56.3744C308.75 56.3744 308.912 56.4091 309.061 56.4761L312.691 58.1161ZM321.691 33.5161C322.989 34.0987 324.198 34.863 325.281 35.7861C326.322 36.6614 327.199 37.7144 327.871 38.8961C328.516 40.0283 328.905 41.2877 329.011 42.5861C329.113 43.962 328.854 45.3406 328.261 46.5861C327.838 47.5935 327.215 48.5051 326.431 49.2662C325.734 49.9215 324.942 50.4677 324.081 50.8861C323.248 51.2924 322.381 51.6269 321.491 51.8861L318.961 52.6161C318.206 52.8308 317.473 53.1153 316.771 53.4661C316.137 53.7698 315.6 54.2442 315.221 54.8361C315.04 55.1129 314.783 55.3316 314.481 55.4661C314.34 55.5381 314.184 55.5757 314.026 55.5757C313.868 55.5757 313.712 55.5381 313.571 55.4661L310.421 54.0661C310.268 53.9999 310.131 53.9039 310.016 53.7837C309.9 53.6635 309.811 53.5215 309.751 53.3661C309.682 53.2174 309.65 53.0538 309.659 52.8899C309.667 52.726 309.716 52.5667 309.801 52.4261C310.283 51.4431 310.964 50.5713 311.801 49.8661C312.551 49.2357 313.382 48.7078 314.271 48.2962C315.122 47.8829 316.009 47.5482 316.921 47.2962C317.821 47.0562 318.651 46.8161 319.431 46.5861C320.126 46.3743 320.796 46.0893 321.431 45.7361C321.989 45.4263 322.434 44.9463 322.701 44.3661C322.937 43.8548 323.046 43.2939 323.018 42.7315C322.99 42.169 322.826 41.6217 322.541 41.1361C321.827 39.9373 320.732 39.0116 319.431 38.5061C317.051 37.4328 314.768 37.8361 312.581 39.7161C312.361 39.9212 312.107 40.0869 311.831 40.2061C311.684 40.247 311.531 40.2583 311.38 40.2394C311.229 40.2205 311.083 40.1718 310.951 40.0961L307.551 38.5661C307.429 38.5147 307.319 38.4397 307.226 38.3453C307.133 38.2508 307.06 38.139 307.011 38.0161C306.952 37.8927 306.922 37.7578 306.922 37.6211C306.922 37.4845 306.952 37.3496 307.011 37.2261C307.54 36.1905 308.312 35.2984 309.261 34.6261C310.334 33.8454 311.535 33.2598 312.811 32.8961C314.215 32.4985 315.673 32.3264 317.131 32.3861C318.725 32.4513 320.289 32.8355 321.731 33.5161H321.691Z" fill="white"/>
<g opacity="0.6">
<path opacity="0.6" d="M312.691 58.1161C312.989 58.2537 313.221 58.502 313.339 58.8082C313.457 59.1145 313.45 59.4546 313.321 59.7561L311.661 63.4562C311.524 63.7565 311.273 63.9903 310.964 64.1065C310.655 64.2226 310.312 64.2117 310.011 64.0761L306.401 62.4562C306.253 62.3912 306.119 62.2964 306.009 62.1777C305.899 62.059 305.815 61.9189 305.761 61.7662C305.694 61.6168 305.659 61.4549 305.659 61.2911C305.659 61.1274 305.694 60.9655 305.761 60.8161L307.421 57.1161C307.488 56.9688 307.583 56.8362 307.701 56.7263C307.82 56.6164 307.959 56.5313 308.111 56.4761C308.26 56.4091 308.422 56.3744 308.586 56.3744C308.75 56.3744 308.912 56.4091 309.061 56.4761L312.691 58.1161ZM321.691 33.5161C322.989 34.0987 324.198 34.863 325.281 35.7861C326.322 36.6614 327.199 37.7144 327.871 38.8961C328.516 40.0283 328.905 41.2877 329.011 42.5861C329.113 43.962 328.854 45.3406 328.261 46.5861C327.838 47.5935 327.215 48.5051 326.431 49.2662C325.734 49.9215 324.942 50.4677 324.081 50.8861C323.248 51.2924 322.381 51.6269 321.491 51.8861L318.961 52.6161C318.206 52.8308 317.473 53.1153 316.771 53.4661C316.137 53.7698 315.6 54.2442 315.221 54.8361C315.04 55.1129 314.783 55.3316 314.481 55.4661C314.34 55.5381 314.184 55.5757 314.026 55.5757C313.868 55.5757 313.712 55.5381 313.571 55.4661L310.421 54.0661C310.268 53.9999 310.131 53.9039 310.016 53.7837C309.9 53.6635 309.811 53.5215 309.751 53.3661C309.682 53.2174 309.65 53.0538 309.659 52.8899C309.667 52.726 309.716 52.5667 309.801 52.4261C310.283 51.4431 310.964 50.5713 311.801 49.8661C312.551 49.2357 313.382 48.7078 314.271 48.2962C315.122 47.8829 316.009 47.5482 316.921 47.2962C317.821 47.0562 318.651 46.8161 319.431 46.5861C320.126 46.3743 320.796 46.0893 321.431 45.7361C321.989 45.4263 322.434 44.9463 322.701 44.3661C322.937 43.8548 323.046 43.2939 323.018 42.7315C322.99 42.169 322.826 41.6217 322.541 41.1361C321.827 39.9373 320.732 39.0116 319.431 38.5061C317.051 37.4328 314.768 37.8361 312.581 39.7161C312.361 39.9212 312.107 40.0869 311.831 40.2061C311.684 40.247 311.531 40.2583 311.38 40.2394C311.229 40.2205 311.083 40.1718 310.951 40.0961L307.551 38.5661C307.429 38.5147 307.319 38.4397 307.226 38.3453C307.133 38.2508 307.06 38.139 307.011 38.0161C306.952 37.8927 306.922 37.7578 306.922 37.6211C306.922 37.4845 306.952 37.3496 307.011 37.2261C307.54 36.1905 308.312 35.2984 309.261 34.6261C310.334 33.8454 311.535 33.2598 312.811 32.8961C314.215 32.4985 315.673 32.3264 317.131 32.3861C318.725 32.4513 320.289 32.8355 321.731 33.5161H321.691Z" fill="white"/>
</g>
<path d="M50.51 32.2703L14.28 53.1803C13.2806 53.8957 12.4631 54.8357 11.8934 55.9248C11.3237 57.0138 11.0177 58.2214 11 59.4503V88.2103C11 90.6303 12.47 91.7403 14.28 90.6903L50.51 69.7903C51.5077 69.0732 52.3238 68.1328 52.8934 67.0442C53.4629 65.9555 53.7699 64.7488 53.79 63.5203V34.7503C53.77 32.3403 52.3 31.2303 50.51 32.2703ZM39.74 57.1803L52.45 34.1103C52.6415 34.4984 52.7342 34.9278 52.72 35.3603V62.7203L39.74 57.1803ZM14.28 54.5803L50.51 33.6703C50.6928 33.5472 50.8998 33.4647 51.1172 33.4285C51.3346 33.3923 51.5572 33.4031 51.77 33.4603L33.77 66.1203C33 67.5303 31.77 68.2203 31.02 67.7103L13.02 55.8203C13.3423 55.3182 13.7728 54.8945 14.28 54.5803V54.5803ZM12.28 57.2703L24.98 65.6703L11.98 86.2103V58.8403C12.0137 58.3019 12.1318 57.7721 12.33 57.2703H12.28ZM50.51 68.3903L14.3 89.2903C13.15 89.9603 12.22 89.2903 12.09 87.9203L25.81 66.1903L30.3 69.1903C30.623 69.3735 30.992 69.4596 31.3627 69.4383C31.7334 69.417 32.0901 69.2892 32.39 69.0703C33.2916 68.4963 34.0235 67.6919 34.51 66.7403L38.99 58.6003L52.73 64.4603C52.6721 65.2384 52.443 65.9941 52.0593 66.6734C51.6755 67.3528 51.1465 67.939 50.51 68.3903V68.3903Z" fill="#A016B4"/>
<path opacity="0.6" d="M50.51 32.2703L14.28 53.1803C13.2806 53.8957 12.4631 54.8357 11.8934 55.9248C11.3237 57.0138 11.0177 58.2214 11 59.4503V88.2103C11 90.6303 12.47 91.7403 14.28 90.6903L50.51 69.7903C51.5077 69.0732 52.3238 68.1328 52.8934 67.0442C53.4629 65.9555 53.7699 64.7488 53.79 63.5203V34.7503C53.77 32.3403 52.3 31.2303 50.51 32.2703ZM39.74 57.1803L52.45 34.1103C52.6415 34.4984 52.7342 34.9278 52.72 35.3603V62.7203L39.74 57.1803ZM14.28 54.5803L50.51 33.6703C50.6928 33.5472 50.8998 33.4647 51.1172 33.4285C51.3346 33.3923 51.5572 33.4031 51.77 33.4603L33.77 66.1203C33 67.5303 31.77 68.2203 31.02 67.7103L13.02 55.8203C13.3423 55.3182 13.7728 54.8945 14.28 54.5803V54.5803ZM12.28 57.2703L24.98 65.6703L11.98 86.2103V58.8403C12.0137 58.3019 12.1318 57.7721 12.33 57.2703H12.28ZM50.51 68.3903L14.3 89.2903C13.15 89.9603 12.22 89.2903 12.09 87.9203L25.81 66.1903L30.3 69.1903C30.623 69.3735 30.992 69.4596 31.3627 69.4383C31.7334 69.417 32.0901 69.2892 32.39 69.0703C33.2916 68.4963 34.0235 67.6919 34.51 66.7403L38.99 58.6003L52.73 64.4603C52.6721 65.2384 52.443 65.9941 52.0593 66.6734C51.6755 67.3528 51.1465 67.939 50.51 68.3903V68.3903Z" fill="white"/>
<path d="M87.51 29.3903L56.51 47.2703V48.6703L87.51 30.7903C87.691 30.6674 87.8963 30.585 88.112 30.5488C88.3278 30.5125 88.5488 30.5233 88.76 30.5803L70.76 63.2403C69.99 64.6503 68.76 65.3503 68.01 64.8303L56.51 57.2403V59.1603L62.01 62.7903L49.01 83.3303V73.8003L48.01 74.4103V85.3303C48.01 87.7503 49.48 88.8603 51.29 87.8103L87.51 66.9103C88.5077 66.1932 89.3238 65.2528 89.8934 64.1642C90.4629 63.0755 90.7699 61.8687 90.79 60.6403V31.8703C90.75 29.4603 89.28 28.3503 87.51 29.3903ZM87.51 65.5103L51.26 86.4203C50.11 87.0803 49.17 86.4203 49.05 85.0403L62.79 63.3103L67.27 66.3103C67.593 66.4934 67.962 66.5796 68.3327 66.5583C68.7034 66.537 69.0601 66.4092 69.36 66.1903C70.2512 65.6303 70.9736 64.8388 71.45 63.9003L75.94 55.7603L89.68 61.6203C89.6203 62.3868 89.3954 63.1314 89.0208 63.8028C88.6463 64.4743 88.1309 65.0568 87.51 65.5103ZM89.74 59.8403L76.74 54.3003L89.44 31.2303C89.6349 31.6175 89.7311 32.0469 89.72 32.4803L89.74 59.8403Z" fill="#E0E0E0"/>
<path d="M99.37 349.765C99.257 349.702 99.1292 349.671 99 349.675H98.21V363.525L106.37 354.765C106.44 354.682 106.492 354.585 106.521 354.481C106.55 354.377 106.555 354.267 106.537 354.16C106.519 354.053 106.477 353.952 106.416 353.863C106.354 353.774 106.274 353.699 106.18 353.645L99.37 349.765Z" fill="#A016B4"/>
<path opacity="0.3" d="M99.37 349.765C99.257 349.702 99.1292 349.671 99 349.675H98.21V363.525L106.37 354.765C106.44 354.682 106.492 354.585 106.521 354.481C106.55 354.377 106.555 354.267 106.537 354.16C106.519 354.053 106.477 353.952 106.416 353.863C106.354 353.774 106.274 353.699 106.18 353.645L99.37 349.765Z" fill="white"/>
<path d="M106.34 354.765L98.21 363.535V353.535H105.81C105.95 353.539 106.087 353.584 106.203 353.663C106.319 353.742 106.41 353.852 106.465 353.981C106.521 354.11 106.539 354.253 106.517 354.391C106.494 354.53 106.433 354.659 106.34 354.765Z" fill="#A016B4"/>
<path d="M98.21 345.345C98.1486 344.233 97.8259 343.151 97.2682 342.186C96.7105 341.222 95.9334 340.403 95 339.795V339.795C94.0064 339.292 92.9085 339.03 91.795 339.03C90.6815 339.03 89.5836 339.292 88.59 339.795L3.21001 389.045C2.27658 389.653 1.49952 390.472 0.941818 391.436C0.384115 392.401 0.0614557 393.483 0 394.595V422.065C0.0599148 423.179 0.381849 424.263 0.939621 425.229C1.49739 426.195 2.27527 427.016 3.21001 427.625V427.625C4.20123 428.135 5.30006 428.402 6.41501 428.402C7.52996 428.402 8.62879 428.135 9.62001 427.625L95.23 378.165C98.11 376.525 98.14 374.875 98.14 372.835L98.21 345.345Z" fill="#A016B4"/>
<path opacity="0.2" d="M0.0400085 422.065C0.0999234 423.179 0.421843 424.263 0.979614 425.229C1.53739 426.195 2.31526 427.016 3.25 427.625V427.625C4.15154 428.083 5.14047 428.345 6.15091 428.391C7.16135 428.438 8.1701 428.269 9.11 427.895C7.6 428.465 6.45001 427.605 6.45001 425.775V398.295C6.48879 397.178 6.81237 396.091 7.39 395.135L0.980011 391.435C0.403598 392.391 0.0801081 393.479 0.0400085 394.595V422.065Z" fill="black"/>
<path opacity="0.3" d="M98.07 344.435C97.7 343.075 96.46 342.645 94.98 343.495L9.65999 392.765C8.71041 393.35 7.9311 394.174 7.39999 395.155L0.98999 391.465C1.52675 390.485 2.30464 389.659 3.24998 389.065L88.55 339.765C89.5453 339.262 90.6449 339 91.76 339C92.8751 339 93.9746 339.262 94.97 339.765V339.765C95.7774 340.291 96.4688 340.977 97.0018 341.78C97.5349 342.583 97.8983 343.486 98.07 344.435Z" fill="white"/>
<path d="M19.99 398.115C19.7686 398.116 19.5529 398.044 19.3768 397.91C19.2007 397.776 19.0742 397.587 19.017 397.373C18.9598 397.159 18.9752 396.932 19.0608 396.728C19.1464 396.524 19.2974 396.354 19.49 396.245L84.49 358.725C84.7186 358.605 84.9845 358.578 85.2322 358.65C85.4799 358.722 85.6902 358.887 85.8193 359.11C85.9484 359.334 85.9862 359.598 85.9248 359.849C85.8635 360.099 85.7077 360.316 85.49 360.455L20.49 397.985C20.3376 398.071 20.1652 398.116 19.99 398.115V398.115Z" fill="#FAFAFA"/>
<path d="M19.99 405.445C19.7686 405.446 19.5529 405.374 19.3768 405.24C19.2007 405.106 19.0742 404.917 19.017 404.703C18.9598 404.489 18.9752 404.262 19.0608 404.058C19.1464 403.854 19.2974 403.684 19.49 403.575L84.49 366.125C84.7196 365.994 84.9915 365.96 85.2463 366.029C85.5011 366.099 85.7181 366.266 85.85 366.495C85.9812 366.723 86.017 366.994 85.9496 367.249C85.8822 367.503 85.7171 367.721 85.49 367.855L20.49 405.315C20.3376 405.401 20.1652 405.446 19.99 405.445Z" fill="#FAFAFA"/>
<path d="M19.99 412.825C19.7686 412.826 19.5529 412.754 19.3768 412.62C19.2007 412.486 19.0742 412.297 19.017 412.083C18.9598 411.869 18.9752 411.642 19.0608 411.438C19.1464 411.234 19.2974 411.064 19.49 410.955L84.49 373.505C84.7196 373.374 84.9915 373.34 85.2463 373.409C85.5011 373.479 85.7181 373.646 85.85 373.875C85.9812 374.103 86.017 374.374 85.9496 374.629C85.8822 374.883 85.7171 375.101 85.49 375.235L20.49 412.695C20.3376 412.781 20.1652 412.826 19.99 412.825Z" fill="#FAFAFA"/>
</g>
<g opacity="0.4" clip-path="url(#clip0)">
<path d="M273.66 33.74L142.34 109.58C140.263 110.778 138.524 112.483 137.286 114.537C136.047 116.59 135.35 118.924 135.26 121.32V426.38C135.26 431.19 138.26 436.81 141.9 438.92C145.54 441.03 151.9 440.8 156.07 438.4L286.92 362.85C289.113 361.416 290.937 359.488 292.247 357.219C293.557 354.95 294.315 352.406 294.46 349.79V45.79C294.46 40.98 291.46 35.36 287.83 33.25C284.2 31.14 277.83 31.34 273.66 33.74Z" fill="#A016B4"/>
<path opacity="0.3" d="M273.66 33.74L142.34 109.58C140.263 110.778 138.524 112.483 137.286 114.537C136.047 116.59 135.35 118.924 135.26 121.32V426.38C135.26 431.19 138.26 436.81 141.9 438.92C145.54 441.03 151.9 440.8 156.07 438.4L286.92 362.85C289.113 361.416 290.937 359.488 292.247 357.219C293.557 354.95 294.315 352.406 294.46 349.79V45.79C294.46 40.98 291.46 35.36 287.83 33.25C284.2 31.14 277.83 31.34 273.66 33.74Z" fill="white"/>
<path d="M154.27 439.26C150.27 440.83 145.07 440.75 141.9 438.92C138.24 436.81 135.27 431.19 135.27 426.38V121.32C135.352 119.037 136.009 116.811 137.18 114.85L149.35 121.76C147.239 124.221 146.004 127.312 145.84 130.55V432.55C145.83 438.29 149.49 441 154.27 439.26Z" fill="#A016B4"/>
<path opacity="0.25" d="M154.27 439.26C150.27 440.83 145.07 440.75 141.9 438.92C138.24 436.81 135.27 431.19 135.27 426.38V121.32C135.352 119.037 136.009 116.811 137.18 114.85L149.35 121.76C147.239 124.221 146.004 127.312 145.84 130.55V432.55C145.83 438.29 149.49 441 154.27 439.26Z" fill="black"/>
<path d="M152.48 119C150.546 120.265 148.937 121.966 147.782 123.967C146.627 125.968 145.958 128.213 145.83 130.52V432.52C145.83 439.02 150.43 441.68 156.06 438.43L286.93 362.87C289.123 361.436 290.947 359.508 292.257 357.239C293.567 354.97 294.325 352.426 294.47 349.81V45.81C294.47 41.02 291.08 39.06 286.93 41.45L152.48 119Z" fill="#A016B4"/>
<path d="M159.3 137.64C157.213 139.001 155.477 140.835 154.231 142.993C152.985 145.151 152.266 147.572 152.13 150.06V409.85C152.13 414.42 155.33 416.27 159.29 413.99L282.41 342.9C284.493 341.537 286.227 339.704 287.473 337.549C288.718 335.393 289.44 332.975 289.58 330.49V70.7C289.58 66.15 286.35 64.28 282.41 66.56L159.3 137.64Z" fill="#A016B4"/>
<path opacity="0.45" d="M159.3 137.64C157.213 139.001 155.477 140.835 154.231 142.993C152.985 145.151 152.266 147.572 152.13 150.06V409.85C152.13 414.42 155.33 416.27 159.29 413.99L282.41 342.9C284.493 341.537 286.227 339.704 287.473 337.549C288.718 335.393 289.44 332.975 289.58 330.49V70.7C289.58 66.15 286.35 64.28 282.41 66.56L159.3 137.64Z" fill="black"/>
<path d="M280.5 324.51V67.66L159.3 137.66C157.213 139.021 155.477 140.855 154.231 143.013C152.985 145.171 152.266 147.592 152.13 150.08V406.91L273.33 336.91C275.412 335.548 277.145 333.717 278.39 331.563C279.636 329.409 280.358 326.994 280.5 324.51V324.51Z" fill="#263238"/>
<path d="M210.6 95.34L232.42 82.75C233.72 81.99 234.77 82.53 234.77 83.94C234.717 84.7314 234.476 85.4987 234.067 86.1786C233.658 86.8585 233.094 87.4314 232.42 87.85L210.6 100.45C209.3 101.2 208.24 100.67 208.24 99.26C208.299 98.4673 208.543 97.6996 208.953 97.0186C209.363 96.3377 209.927 95.7627 210.6 95.34V95.34Z" fill="black"/>
<path d="M248 73.7C249.22 72.99 250.21 73.56 250.21 74.97C250.169 75.7373 249.948 76.4841 249.564 77.1497C249.18 77.8152 248.644 78.3806 248 78.8C246.78 79.51 245.79 78.94 245.79 77.52C245.831 76.754 246.052 76.0086 246.436 75.3447C246.821 74.6807 247.356 74.1171 248 73.7Z" fill="black"/>
<path d="M256.89 68.59C258.11 67.89 259.1 68.46 259.1 69.87C259.058 70.6369 258.835 71.3831 258.452 72.0484C258.068 72.7137 257.533 73.2795 256.89 73.7C255.67 74.4 254.68 73.83 254.68 72.42C254.722 71.653 254.945 70.9068 255.328 70.2415C255.712 69.5762 256.247 69.0105 256.89 68.59V68.59Z" fill="black"/>
<path d="M186.13 109.44C187.35 108.74 188.34 109.31 188.34 110.72C188.299 111.487 188.078 112.234 187.694 112.9C187.31 113.565 186.774 114.131 186.13 114.55C184.91 115.26 183.92 114.68 183.92 113.27C183.962 112.503 184.185 111.757 184.568 111.092C184.952 110.426 185.487 109.861 186.13 109.44Z" fill="black"/>
<path d="M195 104.34C196.22 103.64 197.21 104.21 197.21 105.62C197.168 106.387 196.945 107.133 196.562 107.798C196.178 108.464 195.643 109.029 195 109.45C193.78 110.15 192.79 109.58 192.79 108.17C192.832 107.403 193.055 106.657 193.438 105.991C193.822 105.326 194.357 104.76 195 104.34V104.34Z" fill="black"/>
<path d="M314.12 77.63L184.69 152.26C183.849 152.809 183.147 153.547 182.642 154.415C182.137 155.283 181.841 156.257 181.78 157.26V431.09C181.842 432.094 182.138 433.069 182.645 433.937C183.152 434.806 183.856 435.543 184.7 436.09L186.52 437.09C187.424 437.546 188.422 437.784 189.435 437.784C190.448 437.784 191.446 437.546 192.35 437.09L321.78 362.34C322.621 361.791 323.323 361.053 323.828 360.185C324.333 359.317 324.629 358.343 324.69 357.34V83.7C324.628 82.6963 324.332 81.7211 323.825 80.8528C323.318 79.9844 322.614 79.2471 321.77 78.7L319.95 77.7C319.052 77.2329 318.056 76.9833 317.043 76.9711C316.031 76.959 315.029 77.1846 314.12 77.63V77.63Z" fill="#E0E0E0"/>
<path d="M324.69 357.57C324.69 360.14 322.89 361.77 320.69 363.05L193.47 436.5C191.25 437.78 189.47 436.74 189.47 434.17V163C189.468 161.594 189.837 160.212 190.539 158.993C191.241 157.775 192.252 156.763 193.47 156.06L320.66 82.52C321.068 82.2925 321.528 82.1752 321.995 82.1796C322.462 82.1839 322.92 82.3099 323.324 82.545C323.728 82.7802 324.063 83.1164 324.297 83.5205C324.532 83.9247 324.657 84.3829 324.66 84.85V84.85L324.69 357.57Z" fill="#FAFAFA"/>
<path d="M322 83.28C322.416 83.28 322.816 83.4455 323.11 83.7399C323.405 84.0343 323.57 84.4336 323.57 84.85V357.57C323.57 359.31 322.5 360.7 320.1 362.08L192.9 435.53C192.531 435.764 192.107 435.899 191.67 435.92C190.67 435.92 190.56 434.82 190.56 434.17V163C190.558 161.785 190.875 160.591 191.481 159.538C192.087 158.485 192.959 157.609 194.01 157L321.22 83.49C321.457 83.3536 321.726 83.2813 322 83.28V83.28ZM322 82.16C321.529 82.1589 321.067 82.2832 320.66 82.52L193.45 156C192.232 156.703 191.221 157.715 190.519 158.933C189.817 160.152 189.448 161.534 189.45 162.94V434.17C189.45 435.99 190.36 437.05 191.68 437.05C192.317 437.024 192.937 436.835 193.48 436.5L320.67 363.05C322.9 361.77 324.67 360.14 324.67 357.57V84.85C324.67 84.1401 324.389 83.4589 323.889 82.955C323.389 82.4511 322.71 82.1653 322 82.16V82.16Z" fill="#E0E0E0"/>
<path d="M324.69 83.7V84.85C324.687 84.3829 324.562 83.9247 324.327 83.5205C324.093 83.1164 323.758 82.7802 323.354 82.5451C322.95 82.3099 322.492 82.184 322.025 82.1796C321.558 82.1752 321.098 82.2925 320.69 82.52L193.45 156C192.226 156.694 191.214 157.706 190.52 158.93C190.498 158.956 190.481 158.987 190.47 159.02L182.6 154.47C183.1 153.563 183.822 152.799 184.7 152.25L314.12 77.63C315.024 77.1738 316.022 76.9362 317.035 76.9362C318.048 76.9362 319.046 77.1738 319.95 77.63L321.77 78.63C322.625 79.1821 323.335 79.9301 323.843 80.8118C324.351 81.6936 324.641 82.6837 324.69 83.7V83.7Z" fill="#F0F0F0"/>
<path d="M214.28 160.07C214.261 160.008 214.261 159.942 214.28 159.88V158.94L212.81 159.79C212.73 159.84 212.69 159.79 212.69 159.66V159.33C212.683 159.267 212.683 159.203 212.69 159.14C212.7 159.078 212.717 159.018 212.74 158.96L214.3 154.7C214.319 154.642 214.342 154.585 214.37 154.53C214.397 154.49 214.435 154.458 214.48 154.44L214.68 154.32C214.74 154.32 214.79 154.32 214.82 154.32C214.837 154.386 214.837 154.454 214.82 154.52V157.8L215.14 157.61C215.2 157.61 215.25 157.61 215.27 157.61C215.292 157.675 215.292 157.745 215.27 157.81V158C215.288 158.076 215.288 158.154 215.27 158.23C215.247 158.292 215.2 158.342 215.14 158.37L214.82 158.56V159.5C214.833 159.58 214.833 159.661 214.82 159.74C214.789 159.8 214.74 159.849 214.68 159.88L214.43 160.02C214.35 160.1 214.31 160.1 214.28 160.07ZM214.34 158.07V155.73L213.27 158.68L214.34 158.07Z" fill="#455A64"/>
<path d="M216 158.5C215.651 157.924 215.5 157.25 215.57 156.58C215.548 155.756 215.694 154.936 216 154.17C216.23 153.557 216.66 153.039 217.22 152.7C217.399 152.593 217.595 152.518 217.8 152.48C217.957 152.443 218.122 152.468 218.26 152.55C218.26 152.55 218.26 152.55 218.26 152.63C218.263 152.667 218.263 152.703 218.26 152.74L218.13 153.23C218.119 153.271 218.098 153.309 218.07 153.34H218.01C217.885 153.298 217.751 153.287 217.62 153.308C217.49 153.329 217.366 153.381 217.26 153.46C216.88 153.692 216.588 154.044 216.43 154.46C216.212 155.027 216.11 155.633 216.13 156.24C216.079 156.742 216.18 157.247 216.42 157.69C216.62 157.93 216.88 157.95 217.22 157.75C217.354 157.679 217.478 157.592 217.59 157.49C217.697 157.396 217.791 157.288 217.87 157.17V155.65L217.26 156C217.2 156 217.16 156 217.13 156C217.113 155.931 217.113 155.859 217.13 155.79V155.58C217.115 155.501 217.115 155.419 217.13 155.34C217.16 155.282 217.205 155.234 217.26 155.2L218.26 154.64C218.33 154.64 218.38 154.64 218.4 154.64C218.423 154.718 218.423 154.802 218.4 154.88V157.06C218.407 157.123 218.407 157.187 218.4 157.25C218.396 157.305 218.375 157.358 218.34 157.4C218.063 157.874 217.666 158.267 217.19 158.54C216.72 158.86 216.31 158.84 216 158.5Z" fill="#455A64"/>
<path d="M228.41 151C228.415 151.346 228.34 151.688 228.19 152.001C228.041 152.313 227.822 152.586 227.55 152.8C227.08 153.07 226.7 152.71 226.7 151.98C226.693 151.635 226.767 151.293 226.914 150.98C227.062 150.668 227.279 150.394 227.55 150.18C228 149.91 228.41 150.28 228.41 151Z" fill="#455A64"/>
<path d="M227.55 148C226.542 148.725 225.832 149.791 225.55 151C225.47 151.27 225.55 151.52 225.64 151.6C225.8 151.7 226.04 151.49 226.14 151.16C226.335 150.315 226.828 149.569 227.53 149.06C227.648 148.976 227.785 148.922 227.929 148.902C228.073 148.881 228.219 148.896 228.356 148.944C228.493 148.992 228.617 149.072 228.717 149.177C228.817 149.283 228.89 149.411 228.93 149.55C229.02 149.77 229.26 149.71 229.42 149.42C229.534 149.205 229.566 148.957 229.51 148.72C229.455 148.524 229.353 148.344 229.215 148.195C229.077 148.045 228.905 147.931 228.714 147.86C228.522 147.79 228.317 147.766 228.115 147.79C227.913 147.815 227.719 147.887 227.55 148V148Z" fill="#455A64"/>
<path d="M227.55 145.94C226.09 147.003 225.033 148.529 224.55 150.27C224.45 150.55 224.48 150.84 224.62 150.92C224.78 151.01 225 150.82 225.11 150.5C225.507 149.071 226.383 147.821 227.59 146.96C227.79 146.815 228.02 146.717 228.263 146.672C228.506 146.627 228.756 146.638 228.995 146.702C229.233 146.766 229.454 146.883 229.642 147.043C229.83 147.204 229.98 147.404 230.08 147.63C230.18 147.83 230.41 147.76 230.57 147.48C230.633 147.371 230.673 147.249 230.685 147.123C230.697 146.997 230.682 146.87 230.64 146.75C230.522 146.464 230.34 146.208 230.107 146.004C229.874 145.8 229.596 145.653 229.297 145.575C228.997 145.496 228.684 145.488 228.38 145.552C228.077 145.615 227.793 145.748 227.55 145.94Z" fill="#455A64"/>
<path d="M249.82 136.2C249.809 136.175 249.803 136.148 249.803 136.12C249.803 136.093 249.809 136.065 249.82 136.04C249.82 135.972 249.841 135.906 249.88 135.85L251.1 133.66L251.19 133.5C251.219 133.459 251.256 133.425 251.3 133.4L251.74 133.14C251.756 133.128 251.775 133.121 251.795 133.121C251.815 133.121 251.834 133.128 251.85 133.14C251.859 133.162 251.864 133.186 251.864 133.21C251.864 133.234 251.859 133.258 251.85 133.28V138.89C251.863 138.953 251.863 139.017 251.85 139.08C251.827 139.133 251.789 139.179 251.74 139.21L251.28 139.47C251.264 139.482 251.245 139.489 251.225 139.489C251.205 139.489 251.186 139.482 251.17 139.47C251.153 139.425 251.153 139.375 251.17 139.33V135.04L250.37 136.46C250.347 136.511 250.309 136.553 250.26 136.58C250.244 136.591 250.225 136.597 250.205 136.597C250.185 136.597 250.166 136.591 250.15 136.58L249.82 136.2Z" fill="#455A64"/>
<path d="M252.67 134.55C252.658 134.497 252.658 134.443 252.67 134.39C252.679 134.324 252.7 134.26 252.73 134.2L253.95 132.01L254.05 131.86C254.072 131.815 254.107 131.777 254.15 131.75L254.59 131.5C254.605 131.486 254.625 131.478 254.645 131.478C254.665 131.478 254.685 131.486 254.7 131.5C254.717 131.545 254.717 131.595 254.7 131.64V137.25C254.714 137.313 254.714 137.378 254.7 137.44C254.677 137.493 254.639 137.539 254.59 137.57L254.13 137.84C254.116 137.851 254.098 137.858 254.08 137.858C254.062 137.858 254.044 137.851 254.03 137.84C253.996 137.802 253.978 137.751 253.98 137.7V133.4L253.18 134.83C253.157 134.878 253.118 134.917 253.07 134.94C253.055 134.949 253.038 134.953 253.02 134.953C253.002 134.953 252.985 134.949 252.97 134.94L252.67 134.55Z" fill="#455A64"/>
<path d="M256.42 132.14C256.434 132.129 256.452 132.122 256.47 132.122C256.488 132.122 256.506 132.129 256.52 132.14C256.537 132.185 256.537 132.235 256.52 132.28V133.13C256.534 133.193 256.534 133.257 256.52 133.32C256.503 133.374 256.468 133.42 256.42 133.45L255.89 133.76C255.874 133.772 255.855 133.779 255.835 133.779C255.815 133.779 255.796 133.772 255.78 133.76C255.763 133.715 255.763 133.665 255.78 133.62V132.77C255.765 132.708 255.765 132.643 255.78 132.58C255.8 132.525 255.839 132.479 255.89 132.45L256.42 132.14ZM256.42 135.14C256.434 135.129 256.452 135.122 256.47 135.122C256.488 135.122 256.506 135.129 256.52 135.14C256.529 135.162 256.534 135.186 256.534 135.21C256.534 135.234 256.529 135.258 256.52 135.28V136.13C256.534 136.193 256.534 136.257 256.52 136.32C256.5 136.372 256.466 136.418 256.42 136.45L255.89 136.75C255.875 136.764 255.855 136.772 255.835 136.772C255.815 136.772 255.795 136.764 255.78 136.75C255.763 136.705 255.763 136.655 255.78 136.61V135.76C255.765 135.698 255.765 135.633 255.78 135.57C255.803 135.514 255.841 135.466 255.89 135.43L256.42 135.14Z" fill="#455A64"/>
<path d="M259.43 134.76C259.415 134.774 259.395 134.782 259.375 134.782C259.355 134.782 259.335 134.774 259.32 134.76C259.32 134.76 259.32 134.69 259.32 134.63V133.58L257.57 134.58C257.555 134.594 257.535 134.602 257.515 134.602C257.495 134.602 257.475 134.594 257.46 134.58C257.443 134.535 257.443 134.485 257.46 134.44V133.82C257.45 133.744 257.45 133.666 257.46 133.59L257.55 133.34L259.27 129.03C259.312 128.894 259.392 128.773 259.5 128.68L259.93 128.43C259.98 128.43 260.01 128.43 260.04 128.43C260.049 128.452 260.054 128.476 260.054 128.5C260.054 128.524 260.049 128.548 260.04 128.57V132L260.52 131.72C260.536 131.708 260.555 131.701 260.575 131.701C260.595 131.701 260.614 131.708 260.63 131.72C260.639 131.742 260.644 131.766 260.644 131.79C260.644 131.814 260.639 131.838 260.63 131.86V132.47C260.644 132.536 260.644 132.604 260.63 132.67C260.604 132.722 260.567 132.766 260.52 132.8L260.04 133.08V134.13C260.052 134.193 260.052 134.257 260.04 134.32C260.02 134.375 259.981 134.422 259.93 134.45L259.43 134.76ZM259.28 132.48V130.62L258.28 133.04L259.28 132.48Z" fill="#455A64"/>
<path d="M261.69 127.61C261.694 127.544 261.711 127.479 261.74 127.42C261.76 127.365 261.799 127.318 261.85 127.29L263.97 126.07C263.97 126.07 264.04 126.07 264.07 126.07C264.104 126.109 264.122 126.159 264.12 126.21V126.83C264.118 126.896 264.1 126.961 264.07 127.02C264.05 127.072 264.016 127.118 263.97 127.15L262.38 128.07L262.32 129.21C262.404 129.101 262.506 129.007 262.62 128.93C262.698 128.869 262.782 128.816 262.87 128.77C263.047 128.661 263.244 128.59 263.45 128.56C263.615 128.538 263.782 128.577 263.92 128.67C264.063 128.788 264.17 128.944 264.23 129.12C264.314 129.378 264.351 129.649 264.34 129.92C264.34 130.256 264.303 130.592 264.23 130.92C264.158 131.209 264.051 131.488 263.91 131.75C263.787 131.986 263.629 132.202 263.44 132.39C263.274 132.569 263.082 132.72 262.87 132.84C262.668 132.972 262.439 133.057 262.2 133.09C262.038 133.114 261.873 133.075 261.74 132.98C261.607 132.884 261.509 132.747 261.46 132.59C261.394 132.404 261.36 132.208 261.36 132.01C261.34 131.945 261.34 131.875 261.36 131.81C261.386 131.758 261.423 131.714 261.47 131.68L261.92 131.42C261.937 131.41 261.956 131.405 261.975 131.405C261.994 131.405 262.013 131.41 262.03 131.42C262.063 131.448 262.085 131.487 262.09 131.53C262.104 131.626 262.138 131.718 262.19 131.8C262.235 131.85 262.294 131.885 262.36 131.9C262.433 131.914 262.507 131.914 262.58 131.9L262.83 131.78C263.051 131.643 263.228 131.445 263.34 131.21C263.477 130.948 263.546 130.656 263.54 130.36C263.553 130.261 263.541 130.159 263.506 130.065C263.472 129.971 263.415 129.887 263.34 129.82C263.266 129.767 263.176 129.739 263.085 129.739C262.994 129.739 262.904 129.767 262.83 129.82C262.729 129.871 262.638 129.939 262.56 130.02C262.498 130.072 262.445 130.133 262.4 130.2L262.28 130.36C262.246 130.407 262.201 130.444 262.15 130.47L261.64 130.77C261.624 130.782 261.605 130.789 261.585 130.789C261.565 130.789 261.546 130.782 261.53 130.77C261.521 130.748 261.516 130.724 261.516 130.7C261.516 130.676 261.521 130.652 261.53 130.63L261.69 127.61Z" fill="#455A64"/>
<path d="M198.06 170.14V168.33L199.63 167.42V169.23L198.06 170.14Z" fill="#455A64"/>
<path d="M200.41 168.78V165.16L201.98 164.26V167.88L200.41 168.78Z" fill="#455A64"/>
<path d="M202.76 167.42V162L204.33 161.09V166.52L202.76 167.42Z" fill="#455A64"/>
<path d="M205.11 166.07V158.83L206.68 157.92V165.16L205.11 166.07Z" fill="#455A64"/>
<path d="M315.18 96.65C315.01 96.4 314.8 96.34 314.59 96.46L308.74 99.83C308.503 100.057 308.319 100.333 308.202 100.639C308.084 100.945 308.036 101.273 308.06 101.6V104.89C308.05 105.241 308.14 105.588 308.32 105.89C308.376 105.986 308.46 106.063 308.56 106.11C308.612 106.139 308.671 106.154 308.73 106.154C308.789 106.154 308.848 106.139 308.9 106.11L314.75 102.74C314.987 102.512 315.171 102.234 315.289 101.926C315.406 101.618 315.454 101.288 315.43 100.96V97.7C315.448 97.3334 315.361 96.9693 315.18 96.65V96.65ZM308.48 105.52C308.411 105.37 308.38 105.205 308.39 105.04V101.75C308.373 101.5 308.41 101.249 308.498 101.015C308.586 100.78 308.723 100.567 308.9 100.39L314.75 97C314.78 96.9865 314.812 96.9795 314.845 96.9795C314.878 96.9795 314.91 96.9865 314.94 97L315.02 97.07C315.092 97.2193 315.123 97.3849 315.11 97.55V100.84C315.125 101.091 315.087 101.342 314.997 101.576C314.908 101.811 314.769 102.024 314.59 102.2L308.74 105.56C308.63 105.62 308.54 105.61 308.48 105.52V105.52Z" fill="#455A64"/>
<path d="M310 100.32V104.22L309.08 104.74C309.062 104.75 309.042 104.756 309.021 104.756C309 104.756 308.98 104.751 308.962 104.741C308.944 104.731 308.928 104.716 308.918 104.699C308.907 104.681 308.901 104.661 308.9 104.64V101.75C308.892 101.566 308.921 101.383 308.987 101.211C309.052 101.039 309.152 100.882 309.28 100.75L310 100.32Z" fill="#455A64"/>
<path d="M310.44 100.09L311.54 99.45V103.34L310.44 103.97V100.09Z" fill="#455A64"/>
<path d="M311.96 99.21L313.06 98.57V102.48L311.96 103.11V99.21Z" fill="#455A64"/>
<path d="M314.59 98V100.8C314.589 101.056 314.521 101.306 314.393 101.528C314.265 101.749 314.081 101.932 313.86 102.06L313.49 102.27V98.34L314.36 97.83C314.386 97.8113 314.417 97.8013 314.449 97.8015C314.481 97.8016 314.512 97.8119 314.537 97.8308C314.563 97.8498 314.582 97.8764 314.591 97.9068C314.601 97.9372 314.6 97.9699 314.59 98V98Z" fill="#455A64"/>
<path d="M315.65 97.5901C315.81 97.5001 315.94 97.9701 315.94 98.5901V99.2001C315.986 99.6949 315.886 100.192 315.65 100.63L315.35 100.83V97.7701L315.65 97.5901Z" fill="#455A64"/>
<path d="M299.18 107.54L304.87 102.48L303.11 109.89L302.28 106.81L299.18 107.54Z" fill="#455A64"/>
<path d="M254.53 150.66C254.63 150.6 254.7 150.6 254.75 150.66C254.819 150.745 254.867 150.844 254.89 150.95L257.19 158.77C257.195 158.803 257.195 158.837 257.19 158.87C257.186 158.981 257.159 159.09 257.11 159.19C257.072 159.279 257.01 159.355 256.93 159.41L256.26 159.8C256.127 159.873 256.037 159.873 255.99 159.8C255.945 159.747 255.911 159.686 255.89 159.62L255.49 158.24L252.49 159.96L252.08 161.8C252.057 161.903 252.024 162.004 251.98 162.1C251.922 162.217 251.827 162.312 251.71 162.37L251.04 162.76C251.015 162.781 250.983 162.793 250.95 162.793C250.917 162.793 250.885 162.781 250.86 162.76C250.804 162.697 250.775 162.614 250.78 162.53C250.78 162.53 250.78 162.45 250.78 162.42L253.14 152C253.164 151.848 253.208 151.701 253.27 151.56C253.315 151.453 253.391 151.362 253.49 151.3L254.53 150.66ZM255.05 156.71L254.05 153.19L253.05 157.91L255.05 156.71Z" fill="#455A64"/>
<path d="M259.43 157.57C259.427 157.681 259.4 157.79 259.35 157.89C259.315 157.981 259.252 158.058 259.17 158.11L258.46 158.52C258.435 158.541 258.403 158.553 258.37 158.553C258.337 158.553 258.305 158.541 258.28 158.52C258.224 158.457 258.195 158.374 258.2 158.29V148.79C258.203 148.679 258.23 148.57 258.28 148.47C258.318 148.381 258.38 148.305 258.46 148.25L259.17 147.84C259.195 147.819 259.227 147.807 259.26 147.807C259.293 147.807 259.325 147.819 259.35 147.84C259.406 147.903 259.435 147.986 259.43 148.07V157.57Z" fill="#455A64"/>
<path d="M260.72 153.45C260.719 152.906 260.772 152.363 260.88 151.83C260.979 151.312 261.133 150.805 261.34 150.32C261.529 149.874 261.775 149.454 262.07 149.07C262.34 148.72 262.681 148.43 263.07 148.22C263.349 148.05 263.675 147.973 264 148C264.282 148.033 264.541 148.168 264.73 148.38C264.957 148.638 265.119 148.946 265.2 149.28C265.314 149.711 265.368 150.155 265.36 150.6V151.25C265.36 151.36 265.336 151.47 265.29 151.57C265.252 151.659 265.19 151.735 265.11 151.79L261.97 153.6C261.963 153.781 261.993 153.962 262.06 154.13C262.106 154.25 262.19 154.352 262.3 154.42C262.402 154.481 262.523 154.502 262.64 154.48C262.785 154.461 262.924 154.413 263.05 154.34C263.231 154.237 263.396 154.109 263.54 153.96C263.656 153.83 263.76 153.689 263.85 153.54C263.9 153.449 263.957 153.362 264.02 153.28C264.069 153.221 264.131 153.173 264.2 153.14L264.95 152.7C264.976 152.681 265.008 152.67 265.04 152.67C265.072 152.67 265.104 152.681 265.13 152.7C265.159 152.732 265.18 152.771 265.192 152.812C265.204 152.854 265.207 152.897 265.2 152.94C265.185 153.146 265.137 153.348 265.06 153.54C264.953 153.84 264.815 154.128 264.65 154.4C264.455 154.724 264.231 155.028 263.98 155.31C263.712 155.608 263.398 155.861 263.05 156.06C262.757 156.261 262.404 156.357 262.05 156.33C261.908 156.322 261.77 156.284 261.644 156.219C261.518 156.153 261.408 156.062 261.32 155.95C261.088 155.659 260.931 155.316 260.86 154.95C260.75 154.458 260.703 153.954 260.72 153.45V153.45ZM263 150C262.824 150.105 262.666 150.237 262.53 150.39C262.408 150.55 262.301 150.721 262.21 150.9C262.122 151.075 262.054 151.259 262.01 151.45C261.964 151.617 261.934 151.788 261.92 151.96L264.04 150.73C264.031 150.591 264.008 150.454 263.97 150.32C263.944 150.194 263.886 150.076 263.8 149.98C263.718 149.896 263.607 149.846 263.49 149.84C263.315 149.85 263.147 149.905 263 150V150Z" fill="#455A64"/>
<path d="M267.71 145.93C267.639 145.89 267.575 145.84 267.52 145.78C267.481 145.737 267.451 145.686 267.432 145.631C267.413 145.576 267.406 145.518 267.41 145.46V144.23C267.411 144.143 267.431 144.058 267.47 143.98C267.5 143.911 267.548 143.852 267.61 143.81V143.81C267.619 143.805 267.629 143.802 267.64 143.802C267.651 143.802 267.661 143.805 267.67 143.81L270.97 145.32C271.044 145.356 271.111 145.403 271.17 145.46C271.229 145.556 271.253 145.669 271.24 145.78V146.38C271.244 146.517 271.22 146.653 271.17 146.78C271.12 146.89 271.05 147.01 270.97 147.15L267.67 152.46C267.655 152.49 267.635 152.517 267.61 152.54C267.55 152.54 267.51 152.54 267.47 152.54C267.447 152.516 267.43 152.488 267.42 152.457C267.409 152.426 267.406 152.393 267.41 152.36V151.13C267.412 150.977 267.45 150.826 267.52 150.69C267.59 150.55 267.65 150.42 267.71 150.32L269.84 146.89L267.71 145.93Z" fill="#455A64"/>
<path d="M201.48 183L203.61 184C203.682 184.039 203.749 184.086 203.81 184.14C203.884 184.229 203.92 184.344 203.91 184.46V185.69C203.91 185.777 203.89 185.863 203.85 185.94C203.827 186.012 203.777 186.073 203.71 186.11V186.11H203.65L200.36 184.59C200.28 184.567 200.209 184.517 200.16 184.45C200.101 184.358 200.077 184.248 200.09 184.14V183.53C200.085 183.397 200.109 183.264 200.16 183.14C200.211 183.009 200.278 182.885 200.36 182.77L203.65 177.45C203.665 177.423 203.685 177.399 203.71 177.38C203.729 177.362 203.754 177.351 203.78 177.351C203.806 177.351 203.831 177.362 203.85 177.38C203.872 177.406 203.889 177.436 203.9 177.469C203.91 177.501 203.914 177.536 203.91 177.57V178.8C203.909 178.949 203.875 179.096 203.81 179.23C203.74 179.38 203.67 179.5 203.61 179.61L201.48 183Z" fill="#A016B4"/>
<path d="M207 179.93C207.122 178.282 207.627 176.686 208.474 175.268C209.321 173.85 210.487 172.648 211.88 171.76L215.88 169.39C218.57 167.8 220.75 168.93 220.75 171.9C220.636 173.556 220.134 175.162 219.285 176.589C218.435 178.015 217.262 179.221 215.86 180.11L211.86 182.41C209.16 184 207 182.86 207 179.93Z" fill="#A016B4"/>
<path d="M189.44 414.52V434.17C189.44 436.74 191.25 437.78 193.44 436.5L320.63 363.05C322.86 361.77 324.63 360.14 324.63 357.57V336.43L189.44 414.52Z" fill="#A016B4"/>
<path opacity="0.65" d="M189.44 414.52V434.17C189.44 436.74 191.25 437.78 193.44 436.5L320.63 363.05C322.86 361.77 324.63 360.14 324.63 357.57V336.43L189.44 414.52Z" fill="white"/>
<path d="M207 414.9C206.412 415.368 205.939 415.965 205.618 416.644C205.297 417.324 205.137 418.069 205.15 418.82C205.15 420.39 205.98 421.19 207 420.6C207.588 420.132 208.061 419.535 208.382 418.856C208.703 418.176 208.863 417.432 208.85 416.68C208.81 415.11 208 414.32 207 414.9Z" fill="white"/>
<path d="M210.93 410.1L209.52 410.91V410.18C209.52 409.71 209.28 409.47 208.97 409.65L205 412C204.822 412.138 204.679 412.316 204.582 412.519C204.485 412.722 204.436 412.945 204.44 413.17V413.91L203.03 414.72C202.664 415.009 202.371 415.379 202.173 415.8C201.975 416.222 201.878 416.684 201.89 417.15V424.34C201.89 425.34 202.4 425.81 203.03 425.44L210.97 420.86C211.337 420.572 211.633 420.203 211.832 419.781C212.032 419.359 212.131 418.897 212.12 418.43V411.2C212.08 410.23 211.57 409.73 210.93 410.1ZM207 422C205.48 422.89 204.23 421.69 204.23 419.34C204.23 416.99 205.48 414.34 207 413.48C208.52 412.62 209.77 413.79 209.77 416.14C209.77 418.49 208.49 421.13 207 422Z" fill="white"/>
<path d="M225.34 399.76C223.74 400.801 222.407 402.204 221.452 403.857C220.496 405.509 219.944 407.364 219.84 409.27C219.84 412.78 222.3 414.2 225.34 412.45C226.937 411.404 228.266 409.998 229.22 408.344C230.173 406.691 230.725 404.836 230.83 402.93C230.83 399.43 228.37 398 225.34 399.76ZM228.34 405.47L226 406.79V409.64C225.98 409.81 225.898 409.967 225.77 410.08C225.641 410.194 225.476 410.256 225.305 410.256C225.134 410.256 224.969 410.194 224.84 410.08C224.712 409.967 224.63 409.81 224.61 409.64V407.59L223.01 408.51C222.91 408.577 222.791 408.612 222.67 408.61C222.548 408.609 222.429 408.576 222.324 408.515C222.218 408.453 222.131 408.366 222.07 408.26C221.979 408.102 221.954 407.915 222.001 407.738C222.048 407.562 222.163 407.412 222.32 407.32L224.61 405.99V402.9C224.63 402.73 224.712 402.573 224.84 402.46C224.969 402.346 225.134 402.284 225.305 402.284C225.476 402.284 225.641 402.346 225.77 402.46C225.898 402.573 225.98 402.73 226 402.9V405.2L227.6 404.27C227.759 404.179 227.948 404.154 228.125 404.202C228.303 404.25 228.453 404.366 228.545 404.525C228.636 404.684 228.661 404.873 228.613 405.05C228.565 405.228 228.449 405.379 228.29 405.47H228.34Z" fill="white"/>
<path d="M244 390L312.3 350.57C315 349.01 317.19 350.12 317.19 353.05C317.068 354.693 316.562 356.285 315.712 357.697C314.863 359.109 313.694 360.302 312.3 361.18L244 400.62C241.3 402.19 239.11 401.08 239.11 398.15C239.227 396.503 239.73 394.906 240.58 393.49C241.43 392.074 242.601 390.878 244 390Z" fill="#FAFAFA"/>
<path d="M312.61 352C314.38 351 315.81 351.81 315.81 353.85C315.75 354.96 315.43 356.041 314.874 357.003C314.317 357.966 313.542 358.784 312.61 359.39C310.84 360.39 309.41 359.58 309.41 357.54C309.47 356.43 309.79 355.349 310.346 354.387C310.903 353.424 311.678 352.606 312.61 352Z" fill="#A016B4"/>
<path d="M314.42 354.49L312.91 353C312.871 352.969 312.827 352.945 312.78 352.93H312.72H312.53C312.488 352.941 312.447 352.957 312.41 352.98V352.98C312.372 353.009 312.341 353.047 312.32 353.09V353.09L310.81 356.28C310.778 356.346 310.763 356.419 310.766 356.492C310.77 356.566 310.793 356.637 310.832 356.699C310.871 356.761 310.925 356.812 310.99 356.848C311.054 356.883 311.127 356.901 311.2 356.9C311.282 356.901 311.363 356.878 311.433 356.834C311.502 356.789 311.557 356.725 311.59 356.65L312.27 355.21V358.16C312.273 358.275 312.32 358.384 312.402 358.465C312.485 358.545 312.595 358.59 312.71 358.59C312.824 358.59 312.933 358.545 313.014 358.464C313.095 358.383 313.14 358.274 313.14 358.16V354.3L313.92 355.04C314.006 355.1 314.111 355.128 314.216 355.117C314.321 355.107 314.418 355.059 314.491 354.983C314.563 354.907 314.606 354.807 314.612 354.702C314.617 354.597 314.584 354.493 314.52 354.41L314.42 354.49Z" fill="#FAFAFA"/>
<path d="M296.23 163.4C296.23 158.56 292.83 156.59 288.63 159.01L222 197.49C219.788 198.929 217.947 200.87 216.626 203.155C215.305 205.44 214.543 208.005 214.4 210.64V227.3C214.4 227.49 214.4 227.67 214.4 227.86C214.4 232.77 213.82 240.34 209.4 242.37C209.4 242.37 212.31 243.23 215.45 239.94C217.209 237.867 218.416 235.384 218.96 232.72C220.021 232.608 221.044 232.267 221.96 231.72L288.63 193.24C290.842 191.801 292.683 189.86 294.004 187.575C295.325 185.29 296.087 182.725 296.23 180.09V163.4Z" fill="#E0E0E0"/>
<path d="M272.13 182.94C272.436 182.755 272.776 182.633 273.13 182.58C273.425 182.534 273.728 182.587 273.99 182.73C274.269 182.89 274.484 183.14 274.6 183.44C274.768 183.859 274.847 184.309 274.83 184.76C274.831 185.177 274.784 185.593 274.69 186C274.607 186.373 274.489 186.738 274.34 187.09C274.207 187.432 274.054 187.766 273.88 188.09C273.71 188.41 273.55 188.71 273.41 188.99C273.27 189.27 273.13 189.55 273.01 189.83C272.904 190.085 272.836 190.355 272.81 190.63C272.798 190.761 272.764 190.89 272.71 191.01C272.675 191.112 272.609 191.199 272.52 191.26L271.69 191.74C271.658 191.764 271.62 191.778 271.58 191.778C271.54 191.778 271.502 191.764 271.47 191.74C271.438 191.703 271.415 191.66 271.401 191.614C271.387 191.567 271.383 191.518 271.39 191.47C271.407 191.048 271.467 190.629 271.57 190.22C271.677 189.844 271.804 189.473 271.95 189.11C272.103 188.757 272.263 188.423 272.43 188.11C272.61 187.8 272.76 187.5 272.91 187.22C273.06 186.94 273.17 186.67 273.27 186.42C273.358 186.19 273.405 185.946 273.41 185.7C273.455 185.537 273.445 185.364 273.38 185.207C273.316 185.051 273.201 184.921 273.054 184.837C272.907 184.753 272.737 184.721 272.569 184.745C272.402 184.769 272.247 184.848 272.13 184.97C271.403 185.503 270.915 186.3 270.77 187.19C270.741 187.306 270.704 187.419 270.66 187.53C270.611 187.619 270.539 187.691 270.45 187.74L269.57 188.25C269.545 188.267 269.515 188.276 269.485 188.276C269.455 188.276 269.425 188.267 269.4 188.25C269.373 188.219 269.352 188.182 269.34 188.143C269.328 188.103 269.325 188.061 269.33 188.02C269.35 187.565 269.431 187.114 269.57 186.68C269.715 186.176 269.916 185.689 270.17 185.23C270.415 184.757 270.71 184.311 271.05 183.9C271.35 183.518 271.715 183.193 272.13 182.94V182.94ZM272.57 192.22C272.6 192.196 272.637 192.184 272.675 192.184C272.713 192.184 272.75 192.196 272.78 192.22C272.814 192.256 272.839 192.299 272.855 192.345C272.87 192.392 272.875 192.441 272.87 192.49V194C272.87 194.129 272.839 194.256 272.78 194.37C272.738 194.476 272.664 194.566 272.57 194.63L271.63 195.17C271.603 195.195 271.567 195.208 271.53 195.208C271.493 195.208 271.457 195.195 271.43 195.17C271.398 195.133 271.373 195.09 271.358 195.044C271.343 194.998 271.336 194.949 271.34 194.9V193.42C271.341 193.291 271.372 193.165 271.43 193.05C271.465 192.946 271.536 192.857 271.63 192.8L272.57 192.22Z" fill="#455A64"/>
<path d="M279.17 178.87C279.477 178.69 279.817 178.571 280.17 178.52C280.465 178.464 280.771 178.517 281.03 178.67C281.306 178.828 281.521 179.075 281.64 179.37C281.806 179.79 281.885 180.239 281.87 180.69C281.872 181.111 281.825 181.53 281.73 181.94C281.647 182.313 281.529 182.678 281.38 183.03C281.247 183.372 281.094 183.706 280.92 184.03C280.75 184.35 280.59 184.65 280.45 184.93C280.31 185.21 280.17 185.49 280.05 185.77C279.942 186.025 279.875 186.295 279.85 186.57C279.837 186.701 279.803 186.829 279.75 186.95C279.715 187.052 279.649 187.139 279.56 187.2L278.73 187.67C278.702 187.698 278.664 187.713 278.625 187.713C278.586 187.713 278.548 187.698 278.52 187.67C278.45 187.62 278.43 187.53 278.43 187.4C278.447 186.978 278.507 186.559 278.61 186.15C278.714 185.758 278.844 185.374 279 185C279.138 184.658 279.295 184.325 279.47 184C279.65 183.69 279.8 183.4 279.95 183.12C280.085 182.86 280.205 182.593 280.31 182.32C280.399 182.087 280.446 181.84 280.45 181.59C280.488 181.43 280.473 181.262 280.407 181.111C280.342 180.96 280.229 180.834 280.085 180.753C279.942 180.672 279.776 180.639 279.613 180.66C279.45 180.682 279.298 180.755 279.18 180.87C278.817 181.13 278.509 181.459 278.274 181.838C278.039 182.217 277.881 182.639 277.81 183.08C277.787 183.2 277.75 183.318 277.7 183.43C277.653 183.516 277.584 183.588 277.5 183.64L276.61 184.15C276.585 184.167 276.555 184.176 276.525 184.176C276.495 184.176 276.465 184.167 276.44 184.15C276.414 184.12 276.395 184.085 276.383 184.047C276.371 184.009 276.367 183.97 276.37 183.93C276.389 183.475 276.47 183.024 276.61 182.59C276.759 182.084 276.96 181.595 277.21 181.13C277.458 180.661 277.752 180.219 278.09 179.81C278.393 179.437 278.758 179.119 279.17 178.87V178.87ZM279.6 188.16C279.63 188.137 279.667 188.124 279.705 188.124C279.743 188.124 279.78 188.137 279.81 188.16C279.844 188.196 279.869 188.239 279.885 188.285C279.9 188.332 279.905 188.381 279.9 188.43V189.9C279.9 190.029 279.869 190.156 279.81 190.27C279.768 190.376 279.694 190.466 279.6 190.53L278.66 191.07C278.633 191.095 278.597 191.108 278.56 191.108C278.523 191.108 278.488 191.095 278.46 191.07C278.427 191.036 278.402 190.995 278.387 190.95C278.371 190.905 278.365 190.857 278.37 190.81V189.33C278.37 189.201 278.401 189.074 278.46 188.96C278.496 188.853 278.566 188.762 278.66 188.7L279.6 188.16Z" fill="#455A64"/>
<path d="M286.27 174.77C286.579 174.591 286.918 174.47 287.27 174.41C287.565 174.366 287.867 174.418 288.13 174.56C288.399 174.729 288.608 174.977 288.73 175.27C288.903 175.688 288.981 176.138 288.96 176.59C288.967 177.011 288.92 177.431 288.82 177.84C288.735 178.212 288.622 178.576 288.48 178.93C288.33 179.28 288.18 179.61 288.01 179.93L287.54 180.83C287.394 181.102 287.263 181.383 287.15 181.67C287.039 181.924 286.969 182.194 286.94 182.47C286.932 182.602 286.898 182.731 286.84 182.85C286.807 182.95 286.74 183.035 286.65 183.09L285.82 183.57C285.792 183.598 285.754 183.613 285.715 183.613C285.676 183.613 285.638 183.598 285.61 183.57C285.576 183.534 285.551 183.492 285.535 183.445C285.52 183.398 285.515 183.349 285.52 183.3C285.536 182.878 285.597 182.459 285.7 182.05C285.804 181.668 285.935 181.294 286.09 180.93C286.237 180.59 286.397 180.257 286.57 179.93C286.74 179.62 286.9 179.33 287.04 179.05C287.179 178.793 287.3 178.525 287.4 178.25C287.494 178.018 287.541 177.77 287.54 177.52C287.587 177.358 287.579 177.184 287.515 177.028C287.451 176.871 287.337 176.741 287.19 176.657C287.043 176.574 286.872 176.543 286.705 176.569C286.538 176.595 286.385 176.676 286.27 176.8C285.908 177.059 285.601 177.386 285.366 177.764C285.131 178.141 284.972 178.561 284.9 179C284.877 179.12 284.84 179.238 284.79 179.35C284.743 179.436 284.674 179.508 284.59 179.56L283.7 180.07C283.675 180.087 283.645 180.096 283.615 180.096C283.585 180.096 283.555 180.087 283.53 180.07C283.504 180.038 283.484 180.002 283.472 179.962C283.46 179.923 283.456 179.881 283.46 179.84C283.48 179.388 283.561 178.941 283.7 178.51C283.853 178.005 284.054 177.517 284.3 177.05C284.548 176.581 284.842 176.139 285.18 175.73C285.484 175.349 285.853 175.024 286.27 174.77V174.77ZM286.7 184.06C286.728 184.033 286.766 184.017 286.805 184.017C286.844 184.017 286.882 184.033 286.91 184.06C286.943 184.094 286.968 184.135 286.983 184.18C286.999 184.225 287.005 184.273 287 184.32V185.8C287 185.929 286.969 186.056 286.91 186.17C286.868 186.276 286.794 186.366 286.7 186.43L285.76 186.97C285.732 186.995 285.697 187.008 285.66 187.008C285.623 187.008 285.588 186.995 285.56 186.97C285.526 186.934 285.501 186.892 285.485 186.845C285.47 186.798 285.465 186.749 285.47 186.7V185.23C285.47 185.101 285.501 184.974 285.56 184.86C285.599 184.755 285.669 184.665 285.76 184.6L286.7 184.06Z" fill="#455A64"/>
<path d="M223.75 207.56C223.529 207.562 223.313 207.49 223.137 207.355C222.961 207.221 222.834 207.032 222.777 206.818C222.72 206.604 222.735 206.378 222.821 206.173C222.906 205.969 223.057 205.799 223.25 205.69L287.57 168.56C287.684 168.493 287.809 168.45 287.939 168.432C288.07 168.414 288.202 168.422 288.33 168.456C288.457 168.489 288.576 168.547 288.681 168.627C288.786 168.707 288.874 168.806 288.94 168.92C289.006 169.034 289.049 169.16 289.066 169.291C289.083 169.422 289.075 169.555 289.04 169.682C289.006 169.809 288.946 169.929 288.866 170.033C288.785 170.137 288.685 170.225 288.57 170.29L224.25 207.43C224.098 207.516 223.925 207.561 223.75 207.56Z" fill="#FAFAFA"/>
<path d="M223.75 214.89C223.529 214.892 223.313 214.82 223.137 214.685C222.961 214.551 222.834 214.362 222.777 214.148C222.72 213.934 222.735 213.708 222.821 213.503C222.906 213.299 223.057 213.129 223.25 213.02L263.87 189.62C264.101 189.487 264.375 189.452 264.632 189.521C264.889 189.591 265.107 189.759 265.24 189.99C265.373 190.221 265.408 190.495 265.339 190.752C265.269 191.009 265.101 191.227 264.87 191.36L224.25 214.76C224.098 214.846 223.925 214.891 223.75 214.89Z" fill="#FAFAFA"/>
<path d="M223.75 222.27C223.574 222.271 223.401 222.225 223.248 222.137C223.095 222.049 222.968 221.923 222.88 221.77C222.75 221.54 222.715 221.269 222.785 221.014C222.854 220.759 223.021 220.542 223.25 220.41L263.87 197C264.101 196.867 264.375 196.832 264.632 196.901C264.889 196.971 265.107 197.139 265.24 197.37C265.373 197.601 265.408 197.875 265.339 198.132C265.269 198.389 265.101 198.607 264.87 198.74L224.25 222.14C224.098 222.226 223.925 222.271 223.75 222.27Z" fill="#FAFAFA"/>
<path d="M203.44 246.51C201.2 247.81 199.38 246.43 199.38 243.44C199.38 240.45 201.2 236.97 203.44 235.68C205.68 234.39 207.5 235.76 207.5 238.75C207.5 241.74 205.68 245.22 203.44 246.51Z" fill="#455A64"/>
<path d="M204.86 240.42L202 242.05C201.785 242.202 201.606 242.398 201.474 242.626C201.343 242.854 201.263 243.108 201.24 243.37L201.04 245.12C201.76 246.87 205.04 244.73 205.74 242.12L205.6 240.82C205.56 240.38 205.24 240.2 204.86 240.42Z" fill="#FAFAFA"/>
<path d="M204.79 238C204.782 238.506 204.656 239.002 204.421 239.45C204.187 239.898 203.851 240.285 203.44 240.58C202.69 241.01 202.09 240.58 202.09 239.58C202.097 239.074 202.223 238.577 202.458 238.129C202.692 237.681 203.029 237.294 203.44 237C204.18 236.55 204.79 237 204.79 238Z" fill="#FAFAFA"/>
<path d="M263.19 290.45C263.19 285.61 259.79 283.64 255.59 286.07L222 305.45C219.788 306.889 217.947 308.83 216.626 311.115C215.305 313.4 214.543 315.965 214.4 318.6V321.9C214.4 322.09 214.4 322.27 214.4 322.46C214.4 327.37 213.82 334.94 209.4 336.97C209.4 336.97 212.31 337.83 215.45 334.54C217.209 332.467 218.416 329.984 218.96 327.32C220.021 327.208 221.044 326.867 221.96 326.32L255.59 306.93C257.802 305.491 259.643 303.55 260.964 301.265C262.285 298.98 263.047 296.415 263.19 293.78V290.45Z" fill="#E0E0E0"/>
<path d="M203.44 345C201.2 346.3 199.38 344.92 199.38 341.93C199.38 338.94 201.2 335.46 203.44 334.17C205.68 332.88 207.5 334.25 207.5 337.24C207.5 340.23 205.68 343.72 203.44 345Z" fill="#455A64"/>
<path d="M204.86 338.92L202 340.55C201.785 340.702 201.606 340.898 201.474 341.126C201.343 341.354 201.263 341.608 201.24 341.87L201.04 343.62C201.76 345.37 205.04 343.23 205.74 340.62L205.6 339.32C205.56 338.88 205.24 338.7 204.86 338.92Z" fill="#FAFAFA"/>
<path d="M204.79 336.5C204.782 337.006 204.656 337.502 204.421 337.95C204.187 338.398 203.851 338.785 203.44 339.08C202.69 339.51 202.09 339.08 202.09 338.08C202.097 337.574 202.223 337.077 202.458 336.629C202.692 336.181 203.029 335.794 203.44 335.5C204.18 335.05 204.79 335.51 204.79 336.5Z" fill="#FAFAFA"/>
<path d="M223.05 313.11C222.829 313.112 222.613 313.04 222.437 312.905C222.261 312.771 222.134 312.582 222.077 312.368C222.02 312.154 222.035 311.928 222.121 311.723C222.206 311.519 222.357 311.349 222.55 311.24L254.71 292.73C254.824 292.658 254.951 292.609 255.084 292.587C255.217 292.565 255.353 292.571 255.484 292.603C255.615 292.635 255.739 292.693 255.846 292.774C255.954 292.855 256.045 292.957 256.112 293.074C256.18 293.19 256.223 293.32 256.239 293.453C256.255 293.587 256.244 293.723 256.207 293.853C256.169 293.982 256.106 294.103 256.021 294.207C255.935 294.312 255.83 294.398 255.71 294.46L223.55 313C223.396 313.079 223.223 313.117 223.05 313.11Z" fill="#FAFAFA"/>
<path d="M223.05 319.49C222.829 319.492 222.613 319.42 222.437 319.285C222.261 319.151 222.134 318.962 222.077 318.748C222.02 318.534 222.035 318.308 222.121 318.103C222.206 317.899 222.357 317.729 222.55 317.62L254.71 299.11C254.824 299.044 254.95 299.001 255.081 298.984C255.212 298.967 255.345 298.976 255.472 299.01C255.599 299.044 255.719 299.104 255.823 299.184C255.927 299.265 256.015 299.365 256.08 299.48C256.21 299.71 256.245 299.982 256.175 300.236C256.106 300.491 255.939 300.708 255.71 300.84L223.55 319.35C223.4 319.443 223.227 319.492 223.05 319.49V319.49Z" fill="#FAFAFA"/>
<path d="M296.23 310.89C296.23 306.04 292.83 304.08 288.63 306.5L222 345C219.788 346.439 217.947 348.38 216.626 350.665C215.305 352.95 214.543 355.515 214.4 358.15V373.51C214.4 373.71 214.4 373.89 214.4 374.07C214.4 378.98 213.82 386.55 209.4 388.58C209.4 388.58 212.31 389.44 215.45 386.15C217.211 384.078 218.418 381.594 218.96 378.93C220.022 378.823 221.046 378.481 221.96 377.93L288.63 339.45C290.842 338.011 292.683 336.07 294.004 333.785C295.325 331.5 296.087 328.935 296.23 326.3V310.89Z" fill="#E0E0E0"/>
<path d="M203.44 396.61C201.2 397.9 199.38 396.52 199.38 393.54C199.38 390.56 201.2 387.07 203.44 385.77C205.68 384.47 207.5 385.86 207.5 388.85C207.5 391.84 205.68 395.31 203.44 396.61Z" fill="#455A64"/>
<path d="M204.86 390.51L202 392.15C201.785 392.302 201.606 392.498 201.474 392.726C201.343 392.954 201.263 393.208 201.24 393.47L201.04 395.21C201.76 396.96 205.04 394.83 205.74 392.21L205.6 390.92C205.56 390.47 205.24 390.29 204.86 390.51Z" fill="#FAFAFA"/>
<path d="M204.79 388.1C204.78 388.604 204.653 389.099 204.419 389.545C204.185 389.991 203.849 390.376 203.44 390.67C202.69 391.1 202.09 390.67 202.09 389.67C202.097 389.166 202.223 388.67 202.458 388.224C202.692 387.777 203.029 387.392 203.44 387.1C204.18 386.65 204.79 387.1 204.79 388.1Z" fill="#FAFAFA"/>
<path d="M223.75 354.35C223.529 354.352 223.313 354.28 223.137 354.145C222.961 354.011 222.834 353.822 222.777 353.608C222.72 353.394 222.735 353.168 222.821 352.963C222.906 352.759 223.057 352.589 223.25 352.48L288.25 314.96C288.364 314.893 288.489 314.85 288.619 314.832C288.75 314.814 288.882 314.822 289.01 314.856C289.137 314.889 289.256 314.947 289.361 315.027C289.466 315.107 289.554 315.206 289.62 315.32C289.686 315.434 289.729 315.56 289.746 315.691C289.763 315.822 289.755 315.955 289.72 316.082C289.686 316.209 289.626 316.329 289.546 316.433C289.465 316.537 289.365 316.625 289.25 316.69L224.25 354.21C224.099 354.3 223.926 354.348 223.75 354.35Z" fill="#FAFAFA"/>
<path d="M223.75 361.68C223.529 361.682 223.313 361.61 223.137 361.475C222.961 361.341 222.834 361.152 222.777 360.938C222.72 360.724 222.735 360.498 222.821 360.293C222.906 360.089 223.057 359.919 223.25 359.81L288.25 322.36C288.364 322.288 288.491 322.239 288.624 322.217C288.757 322.195 288.893 322.201 289.024 322.233C289.155 322.265 289.279 322.323 289.386 322.404C289.494 322.485 289.585 322.587 289.652 322.704C289.72 322.82 289.763 322.95 289.779 323.083C289.795 323.217 289.784 323.353 289.747 323.483C289.709 323.612 289.646 323.733 289.561 323.837C289.475 323.941 289.37 324.028 289.25 324.09L224.25 361.54C224.099 361.63 223.926 361.678 223.75 361.68Z" fill="#FAFAFA"/>
<path d="M223.75 370.06C223.529 370.062 223.313 369.99 223.137 369.855C222.961 369.721 222.834 369.532 222.777 369.318C222.72 369.104 222.735 368.878 222.821 368.673C222.906 368.469 223.057 368.299 223.25 368.19L288.25 330.74C288.364 330.668 288.491 330.619 288.624 330.597C288.757 330.575 288.893 330.581 289.024 330.613C289.155 330.645 289.279 330.703 289.386 330.784C289.494 330.865 289.585 330.967 289.652 331.084C289.72 331.2 289.763 331.33 289.779 331.463C289.795 331.597 289.784 331.733 289.747 331.863C289.709 331.992 289.646 332.113 289.561 332.217C289.475 332.322 289.37 332.408 289.25 332.47L224.25 369.92C224.099 370.01 223.926 370.058 223.75 370.06Z" fill="#FAFAFA"/>
<g opacity="0.2">
<path opacity="0.2" d="M472.537 219.367C472.537 221.697 470.574 223.182 468.142 224.351L338.395 286.821C335.979 287.983 334 287.041 334 284.704V244.143C334.002 242.863 334.407 241.605 335.176 240.496C335.944 239.387 337.049 238.466 338.378 237.825L468.134 175.328C468.58 175.113 469.086 175 469.601 175C470.116 175 470.622 175.113 471.068 175.327C471.514 175.542 471.885 175.851 472.143 176.222C472.4 176.594 472.536 177.016 472.537 177.445V177.445V219.367Z" fill="black"/>
</g>
<path d="M345.873 292.307L344.876 291.826C344.089 291.399 343.434 290.824 342.964 290.147C342.494 289.469 342.223 288.709 342.171 287.928V244.838C342.222 244.056 342.494 243.296 342.963 242.619C343.433 241.941 344.089 241.366 344.876 240.94L473.905 178.8C474.741 178.447 475.665 178.263 476.602 178.263C477.538 178.263 478.462 178.447 479.298 178.8L480.296 179.281C481.079 179.705 481.732 180.277 482.202 180.951C482.672 181.624 482.945 182.38 483 183.158V226.269C482.949 227.05 482.678 227.811 482.208 228.488C481.738 229.165 481.083 229.741 480.296 230.167L393.457 271.999C391.758 272.903 390.369 274.158 389.425 275.643L379.431 293.283C378.647 294.631 377.464 295.791 375.993 296.652C374.822 297.209 372.695 297.085 371.178 296.37L370.51 296.04C369.725 295.614 369.071 295.04 368.603 294.364C368.134 293.688 367.864 292.929 367.814 292.149V286.966C367.814 285.536 366.602 284.951 365.109 285.666L351.266 292.335C350.427 292.683 349.502 292.862 348.565 292.857C347.629 292.853 346.706 292.664 345.873 292.307V292.307Z" fill="#A016B4"/>
<path opacity="0.25" d="M345.873 292.307L344.876 291.826C344.089 291.399 343.434 290.824 342.964 290.147C342.494 289.469 342.223 288.709 342.171 287.928V244.838C342.222 244.056 342.494 243.296 342.963 242.619C343.433 241.941 344.089 241.366 344.876 240.94L473.905 178.8C474.741 178.447 475.665 178.263 476.602 178.263C477.538 178.263 478.462 178.447 479.298 178.8L480.296 179.281C481.079 179.705 481.732 180.277 482.202 180.951C482.672 181.624 482.945 182.38 483 183.158V226.269C482.949 227.05 482.678 227.811 482.208 228.488C481.738 229.165 481.083 229.741 480.296 230.167L393.457 271.999C391.758 272.903 390.369 274.158 389.425 275.643L379.431 293.283C378.647 294.631 377.464 295.791 375.993 296.652C374.822 297.209 372.695 297.085 371.178 296.37L370.51 296.04C369.725 295.614 369.071 295.04 368.603 294.364C368.134 293.688 367.864 292.929 367.814 292.149V286.966C367.814 285.536 366.602 284.951 365.109 285.666L351.266 292.335C350.427 292.683 349.502 292.862 348.565 292.857C347.629 292.853 346.706 292.664 345.873 292.307V292.307Z" fill="black"/>
<path d="M483 183.158C483 181.721 481.796 181.144 480.304 181.859L351.266 243.999C350.596 244.345 350.032 244.816 349.617 245.374L343.226 242.301C343.645 241.745 344.208 241.275 344.876 240.926L473.905 178.8C474.741 178.447 475.665 178.263 476.602 178.263C477.538 178.263 478.462 178.447 479.298 178.8L480.304 179.281C481.086 179.706 481.738 180.278 482.207 180.951C482.675 181.625 482.947 182.381 483 183.158V183.158Z" fill="#A016B4"/>
<path opacity="0.45" d="M483 183.158C483 181.721 481.796 181.144 480.304 181.859L351.266 243.999C350.596 244.345 350.032 244.816 349.617 245.374L343.226 242.301C343.645 241.745 344.208 241.275 344.876 240.926L473.905 178.8C474.741 178.447 475.665 178.263 476.602 178.263C477.538 178.263 478.462 178.447 479.298 178.8L480.304 179.281C481.086 179.706 481.738 180.278 482.207 180.951C482.675 181.625 482.947 182.381 483 183.158V183.158Z" fill="white"/>
<path d="M375.218 296.404C375.11 296.401 375.005 296.374 374.914 296.326C374.822 296.277 374.748 296.21 374.699 296.129C374.487 295.806 374.387 295.439 374.41 295.071V284.016C374.41 282.793 373.585 281.954 372.39 281.954C371.867 281.966 371.358 282.095 370.914 282.325L351.002 291.908C350.72 292.058 350.396 292.144 350.062 292.156C349.188 292.156 349.097 291.345 349.097 290.994V247.917C349.15 247.214 349.397 246.53 349.819 245.92C350.241 245.309 350.826 244.788 351.529 244.398L480.601 182.264C480.882 182.114 481.207 182.029 481.541 182.017C482.365 182.017 482.497 182.828 482.497 183.179V226.269C482.445 226.972 482.198 227.654 481.776 228.264C481.354 228.874 480.768 229.393 480.065 229.782L393.201 271.614C391.404 272.561 389.94 273.887 388.955 275.457L378.961 293.098C378.22 294.363 377.108 295.453 375.729 296.267C375.577 296.351 375.4 296.398 375.218 296.404Z" fill="#FAFAFA"/>
<path d="M481.508 182.471C481.879 182.471 481.936 182.924 481.936 183.192V226.269C481.884 226.895 481.662 227.502 481.286 228.045C480.911 228.589 480.391 229.053 479.768 229.404L392.921 271.236C391.037 272.232 389.502 273.624 388.468 275.272L378.475 292.912C377.775 294.094 376.739 295.116 375.457 295.889C375.384 295.926 375.303 295.952 375.218 295.964C375.144 295.93 374.938 295.655 374.938 295.071V284.016C374.938 282.552 373.891 281.528 372.39 281.528C371.775 281.539 371.175 281.686 370.65 281.954L350.738 291.544C350.536 291.654 350.303 291.718 350.062 291.73C349.682 291.73 349.625 291.276 349.625 291.008V247.917C349.677 247.292 349.899 246.684 350.275 246.141C350.65 245.598 351.17 245.133 351.793 244.783L480.831 182.643C481.034 182.533 481.267 182.469 481.508 182.457V182.471ZM481.508 181.57C481.079 181.585 480.661 181.692 480.296 181.879L351.266 244.019C350.48 244.446 349.826 245.022 349.357 245.699C348.889 246.376 348.619 247.137 348.569 247.917V291.008C348.569 292.025 349.171 292.616 350.062 292.616C350.488 292.602 350.903 292.495 351.266 292.307L371.178 282.683C371.544 282.496 371.961 282.392 372.39 282.38C373.272 282.38 373.882 282.964 373.882 283.982V295.036C373.882 296.136 374.435 296.81 375.218 296.81C375.492 296.804 375.759 296.737 375.993 296.618C377.464 295.756 378.647 294.597 379.431 293.249L389.425 275.609C390.369 274.124 391.758 272.869 393.457 271.965L480.296 230.133C481.083 229.706 481.738 229.131 482.208 228.454C482.678 227.776 482.949 227.016 483 226.235V183.158C483 182.141 482.39 181.549 481.508 181.549V181.57Z" fill="#E6E6E6"/>
<path d="M370.524 253.878C370.202 253.927 369.88 253.92 369.609 253.859C369.338 253.799 369.133 253.687 369.027 253.543C368.921 253.398 368.919 253.229 369.021 253.06C369.124 252.892 369.325 252.735 369.594 252.614L460.198 211.205C460.518 211.06 460.911 210.977 461.289 210.973C461.668 210.969 462.002 211.045 462.219 211.185C462.434 211.324 462.516 211.515 462.445 211.716C462.374 211.917 462.157 212.112 461.841 212.259L371.238 253.675C371.025 253.771 370.779 253.841 370.524 253.878Z" fill="#A680AB"/>
<path d="M370.729 269.089C370.407 269.138 370.085 269.131 369.814 269.07C369.543 269.01 369.338 268.898 369.232 268.754C369.125 268.609 369.123 268.44 369.226 268.271C369.328 268.103 369.53 267.946 369.799 267.825L460.403 226.416C460.723 226.271 461.115 226.188 461.494 226.184C461.872 226.18 462.206 226.256 462.423 226.395C462.639 226.535 462.72 226.726 462.65 226.927C462.579 227.128 462.362 227.323 462.046 227.47L371.443 268.886C371.23 268.982 370.984 269.052 370.729 269.089Z" fill="#A680AB"/>
</g>
<defs>
<clipPath id="clip0">
<rect width="500" height="500" fill="white" transform="translate(62 9)"/>
</clipPath>
</defs>
</svg>
