<svg width="192" height="69" viewBox="0 0 192 69" fill="none" xmlns="http://www.w3.org/2000/svg">
<path d="M0 16H4.47282V37.2746H0V16Z" fill="#29292E"/>
<path d="M22.5872 29.6192C22.5872 29.6765 22.5585 30.0779 22.5012 30.8234H10.8317C11.042 31.7791 11.5389 32.5341 12.3226 33.0885C13.1063 33.6428 14.0812 33.9199 15.2472 33.9199C16.05 33.9199 16.7572 33.8053 17.3689 33.5759C17.9997 33.3274 18.5827 32.9451 19.1179 32.429L21.4977 35.0095C20.0449 36.6724 17.9232 37.5039 15.1325 37.5039C13.3931 37.5039 11.8543 37.1694 10.5163 36.5004C9.1783 35.8123 8.14611 34.8661 7.41975 33.6619C6.6934 32.4577 6.33022 31.091 6.33022 29.5618C6.33022 28.0518 6.68384 26.6946 7.39108 25.4904C8.11744 24.2671 9.10184 23.3209 10.3443 22.6519C11.6059 21.9638 13.0108 21.6197 14.5591 21.6197C16.0691 21.6197 17.4358 21.9446 18.6591 22.5945C19.8825 23.2444 20.8382 24.1811 21.5263 25.4044C22.2336 26.6086 22.5872 28.0135 22.5872 29.6192ZM14.5877 25.003C13.5747 25.003 12.7241 25.2897 12.0359 25.8631C11.3478 26.4366 10.9273 27.2203 10.7744 28.2142H18.3724C18.2195 27.2394 17.799 26.4652 17.1109 25.8918C16.4227 25.2993 15.5817 25.003 14.5877 25.003Z" fill="#29292E"/>
<path d="M34.3673 36.5291C33.9277 36.854 33.3829 37.1025 32.733 37.2746C32.1022 37.4275 31.4332 37.5039 30.726 37.5039C28.891 37.5039 27.4669 37.0356 26.4539 36.099C25.4599 35.1624 24.9629 33.7861 24.9629 31.9703V25.6338H22.5832V22.1931H24.9629V18.4371H29.4357V22.1931H33.2778V25.6338H29.4357V31.9129C29.4357 32.5628 29.5982 33.0693 29.9232 33.4325C30.2672 33.7766 30.7451 33.9486 31.3568 33.9486C32.064 33.9486 32.6661 33.7575 33.1631 33.3752L34.3673 36.5291Z" fill="#29292E"/>
<path d="M55.4862 21.6197C57.4168 21.6197 58.9459 22.1931 60.0737 23.34C61.2206 24.4678 61.794 26.169 61.794 28.4436V37.2746H57.3212V29.1317C57.3212 27.9084 57.0631 27.0005 56.5471 26.4079C56.0501 25.7962 55.3333 25.4904 54.3967 25.4904C53.3454 25.4904 52.5139 25.8345 51.9022 26.5226C51.2905 27.1916 50.9847 28.1951 50.9847 29.5331V37.2746H46.5119V29.1317C46.5119 26.7042 45.537 25.4904 43.5873 25.4904C42.5552 25.4904 41.7332 25.8345 41.1216 26.5226C40.5099 27.1916 40.2041 28.1951 40.2041 29.5331V37.2746H35.7312V21.8491H40.0034V23.6267C40.5768 22.9768 41.2745 22.4799 42.0964 22.1358C42.9375 21.7917 43.855 21.6197 44.8489 21.6197C45.9384 21.6197 46.9228 21.8395 47.8021 22.2792C48.6814 22.6997 49.3886 23.3209 49.9238 24.1428C50.5546 23.34 51.3479 22.7188 52.3036 22.2792C53.2785 21.8395 54.3393 21.6197 55.4862 21.6197Z" fill="#29292E"/>
<path d="M79.9344 29.6192C79.9344 29.6765 79.9057 30.0779 79.8484 30.8234H68.1789C68.3891 31.7791 68.8861 32.5341 69.6698 33.0885C70.4535 33.6428 71.4284 33.9199 72.5944 33.9199C73.3972 33.9199 74.1044 33.8053 74.7161 33.5759C75.3469 33.3274 75.9299 32.9451 76.4651 32.429L78.8448 35.0095C77.3921 36.6724 75.2704 37.5039 72.4797 37.5039C70.7402 37.5039 69.2015 37.1694 67.8635 36.5004C66.5255 35.8123 65.4933 34.8661 64.7669 33.6619C64.0406 32.4577 63.6774 31.091 63.6774 29.5618C63.6774 28.0518 64.031 26.6946 64.7383 25.4904C65.4646 24.2671 66.449 23.3209 67.6915 22.6519C68.953 21.9638 70.3579 21.6197 71.9062 21.6197C73.4163 21.6197 74.783 21.9446 76.0063 22.5945C77.2297 23.2444 78.1854 24.1811 78.8735 25.4044C79.5807 26.6086 79.9344 28.0135 79.9344 29.6192ZM71.9349 25.003C70.9218 25.003 70.0712 25.2897 69.3831 25.8631C68.695 26.4366 68.2745 27.2203 68.1215 28.2142H75.7196C75.5667 27.2394 75.1462 26.4652 74.458 25.8918C73.7699 25.2993 72.9289 25.003 71.9349 25.003Z" fill="#29292E"/>
<path d="M47 16.9105V11.4047C47 8.97204 48.5099 7 50.3725 7H68.5H86.6275C88.4901 7 90 8.97204 90 11.4047V42.2374C90 44.67 88.4901 46.642 86.6275 46.642H80.7255L82.6979 58.6637M82.6979 58.6637L74.5 48.8444H50.3725C48.5099 48.8444 47 46.8723 47 44.4397V42.2374M82.6979 58.6637C82.8703 59.7144 83.3025 59.3926 82.6979 58.6637Z" stroke="url(#paint0_linear)" stroke-width="4.30079"/>
<path d="M103.118 35.3887C102.073 36.6582 100.628 37.293 98.7822 37.293C97.083 37.293 95.7842 36.8047 94.8857 35.8281C93.9971 34.8516 93.543 33.4209 93.5234 31.5361V21.1504H97.7568V31.3896C97.7568 33.04 98.5088 33.8652 100.013 33.8652C101.448 33.8652 102.435 33.3672 102.972 32.3711V21.1504H107.22V37H103.235L103.118 35.3887ZM117.708 37.293C115.384 37.293 113.489 36.5801 112.024 35.1543C110.569 33.7285 109.842 31.8291 109.842 29.4561V29.0459C109.842 27.4541 110.149 26.0332 110.765 24.7832C111.38 23.5234 112.249 22.5566 113.372 21.8828C114.505 21.1992 115.794 20.8574 117.239 20.8574C119.407 20.8574 121.111 21.541 122.352 22.9082C123.602 24.2754 124.227 26.2139 124.227 28.7236V30.4521H114.134C114.271 31.4873 114.681 32.3174 115.364 32.9424C116.058 33.5674 116.932 33.8799 117.986 33.8799C119.617 33.8799 120.892 33.2891 121.81 32.1074L123.89 34.4365C123.255 35.335 122.396 36.0381 121.312 36.5459C120.228 37.0439 119.026 37.293 117.708 37.293ZM117.225 24.2852C116.385 24.2852 115.701 24.5684 115.174 25.1348C114.656 25.7012 114.324 26.5117 114.178 27.5664H120.066V27.2295C120.047 26.292 119.793 25.5693 119.305 25.0615C118.816 24.5439 118.123 24.2852 117.225 24.2852ZM135.228 32.6201C135.228 32.1025 134.969 31.6973 134.451 31.4043C133.943 31.1016 133.123 30.833 131.99 30.5986C128.221 29.8076 126.336 28.2061 126.336 25.7939C126.336 24.3877 126.917 23.2158 128.079 22.2783C129.251 21.3311 130.779 20.8574 132.664 20.8574C134.676 20.8574 136.282 21.3311 137.483 22.2783C138.694 23.2256 139.3 24.4561 139.3 25.9697H135.066C135.066 25.3643 134.871 24.8662 134.48 24.4756C134.09 24.0752 133.479 23.875 132.649 23.875C131.937 23.875 131.385 24.0361 130.994 24.3584C130.604 24.6807 130.408 25.0908 130.408 25.5889C130.408 26.0576 130.628 26.4385 131.067 26.7314C131.517 27.0146 132.269 27.2637 133.323 27.4785C134.378 27.6836 135.267 27.918 135.989 28.1816C138.226 29.002 139.344 30.4229 139.344 32.4443C139.344 33.8896 138.724 35.0615 137.483 35.96C136.243 36.8486 134.642 37.293 132.679 37.293C131.351 37.293 130.169 37.0586 129.134 36.5898C128.108 36.1113 127.303 35.4619 126.717 34.6416C126.131 33.8115 125.838 32.918 125.838 31.9609H129.852C129.891 32.7129 130.169 33.2891 130.687 33.6895C131.204 34.0898 131.897 34.29 132.767 34.29C133.577 34.29 134.188 34.1387 134.598 33.8359C135.018 33.5234 135.228 33.1182 135.228 32.6201ZM147.151 17.2539V21.1504H149.861V24.2559H147.151V32.166C147.151 32.752 147.264 33.1719 147.488 33.4258C147.713 33.6797 148.143 33.8066 148.777 33.8066C149.246 33.8066 149.661 33.7725 150.022 33.7041V36.9121C149.192 37.166 148.338 37.293 147.459 37.293C144.49 37.293 142.977 35.7939 142.918 32.7959V24.2559H140.604V21.1504H142.918V17.2539H147.151ZM156.688 37H152.439V21.1504H156.688V37ZM152.19 17.0488C152.19 16.4141 152.4 15.8916 152.82 15.4814C153.25 15.0713 153.831 14.8662 154.563 14.8662C155.286 14.8662 155.862 15.0713 156.292 15.4814C156.722 15.8916 156.937 16.4141 156.937 17.0488C156.937 17.6934 156.717 18.2207 156.277 18.6309C155.848 19.041 155.276 19.2461 154.563 19.2461C153.851 19.2461 153.274 19.041 152.835 18.6309C152.405 18.2207 152.19 17.6934 152.19 17.0488ZM159.529 28.9287C159.529 27.3564 159.832 25.9551 160.438 24.7246C161.043 23.4941 161.912 22.542 163.045 21.8682C164.188 21.1943 165.511 20.8574 167.015 20.8574C169.153 20.8574 170.896 21.5117 172.244 22.8203C173.602 24.1289 174.358 25.9062 174.515 28.1523L174.544 29.2363C174.544 31.668 173.865 33.6211 172.508 35.0957C171.15 36.5605 169.329 37.293 167.044 37.293C164.759 37.293 162.933 36.5605 161.565 35.0957C160.208 33.6309 159.529 31.6387 159.529 29.1191V28.9287ZM163.763 29.2363C163.763 30.7402 164.046 31.8926 164.612 32.6934C165.179 33.4844 165.989 33.8799 167.044 33.8799C168.069 33.8799 168.87 33.4893 169.446 32.708C170.022 31.917 170.311 30.6572 170.311 28.9287C170.311 27.4541 170.022 26.3115 169.446 25.501C168.87 24.6904 168.06 24.2852 167.015 24.2852C165.979 24.2852 165.179 24.6904 164.612 25.501C164.046 26.3018 163.763 27.5469 163.763 29.2363ZM181.048 21.1504L181.18 22.9814C182.312 21.5654 183.831 20.8574 185.735 20.8574C187.415 20.8574 188.665 21.3506 189.485 22.3369C190.306 23.3232 190.726 24.7979 190.745 26.7607V37H186.512V26.8633C186.512 25.9648 186.316 25.3154 185.926 24.915C185.535 24.5049 184.886 24.2998 183.978 24.2998C182.786 24.2998 181.893 24.8076 181.297 25.8232V37H177.063V21.1504H181.048Z" fill="url(#paint1_linear)"/>
<defs>
<linearGradient id="paint0_linear" x1="47" y1="7" x2="93.6766" y2="51.8095" gradientUnits="userSpaceOnUse">
<stop stop-color="#050505"/>
<stop offset="0.703125" stop-color="#FF70F9"/>
<stop offset="0.979167" stop-color="#FF5EF9"/>
</linearGradient>
<linearGradient id="paint1_linear" x1="92" y1="9" x2="109.033" y2="66.4305" gradientUnits="userSpaceOnUse">
<stop stop-color="#050505"/>
<stop offset="0.703125" stop-color="#FF70F9"/>
<stop offset="0.979167" stop-color="#FF5EF9"/>
</linearGradient>
</defs>
</svg>
