<svg width="210" height="69" viewBox="0 0 210 69" fill="none" xmlns="http://www.w3.org/2000/svg">
<path d="M19 16H23.4728V37.2746H19V16Z" fill="#29292E"/>
<path d="M41.5872 29.6192C41.5872 29.6765 41.5585 30.0779 41.5012 30.8234H29.8317C30.042 31.7791 30.5389 32.5341 31.3226 33.0885C32.1063 33.6428 33.0812 33.9199 34.2472 33.9199C35.05 33.9199 35.7572 33.8053 36.3689 33.5759C36.9997 33.3274 37.5827 32.9451 38.1179 32.429L40.4977 35.0095C39.0449 36.6724 36.9232 37.5039 34.1325 37.5039C32.3931 37.5039 30.8543 37.1694 29.5163 36.5004C28.1783 35.8123 27.1461 34.8661 26.4198 33.6619C25.6934 32.4577 25.3302 31.091 25.3302 29.5618C25.3302 28.0518 25.6838 26.6946 26.3911 25.4904C27.1174 24.2671 28.1018 23.3209 29.3443 22.6519C30.6059 21.9638 32.0108 21.6197 33.5591 21.6197C35.0691 21.6197 36.4358 21.9446 37.6591 22.5945C38.8825 23.2444 39.8382 24.1811 40.5263 25.4044C41.2336 26.6086 41.5872 28.0135 41.5872 29.6192ZM33.5877 25.003C32.5747 25.003 31.7241 25.2897 31.0359 25.8631C30.3478 26.4366 29.9273 27.2203 29.7744 28.2142H37.3724C37.2195 27.2394 36.799 26.4652 36.1109 25.8918C35.4227 25.2993 34.5817 25.003 33.5877 25.003Z" fill="#29292E"/>
<path d="M53.3673 36.5291C52.9277 36.854 52.3829 37.1025 51.733 37.2746C51.1022 37.4275 50.4332 37.5039 49.726 37.5039C47.891 37.5039 46.4669 37.0356 45.4539 36.099C44.4599 35.1624 43.9629 33.7861 43.9629 31.9703V25.6338H41.5832V22.1931H43.9629V18.4371H48.4357V22.1931H52.2778V25.6338H48.4357V31.9129C48.4357 32.5628 48.5982 33.0693 48.9232 33.4325C49.2672 33.7766 49.7451 33.9486 50.3568 33.9486C51.064 33.9486 51.6661 33.7575 52.1631 33.3752L53.3673 36.5291Z" fill="#29292E"/>
<path d="M74.4862 21.6197C76.4168 21.6197 77.9459 22.1931 79.0737 23.34C80.2206 24.4678 80.794 26.169 80.794 28.4436V37.2746H76.3212V29.1317C76.3212 27.9084 76.0631 27.0005 75.5471 26.4079C75.0501 25.7962 74.3333 25.4904 73.3967 25.4904C72.3454 25.4904 71.5139 25.8345 70.9022 26.5226C70.2905 27.1916 69.9847 28.1951 69.9847 29.5331V37.2746H65.5119V29.1317C65.5119 26.7042 64.537 25.4904 62.5873 25.4904C61.5552 25.4904 60.7332 25.8345 60.1216 26.5226C59.5099 27.1916 59.2041 28.1951 59.2041 29.5331V37.2746H54.7312V21.8491H59.0034V23.6267C59.5768 22.9768 60.2745 22.4799 61.0964 22.1358C61.9375 21.7917 62.855 21.6197 63.8489 21.6197C64.9384 21.6197 65.9228 21.8395 66.8021 22.2792C67.6814 22.6997 68.3886 23.3209 68.9238 24.1428C69.5546 23.34 70.3479 22.7188 71.3036 22.2792C72.2785 21.8395 73.3393 21.6197 74.4862 21.6197Z" fill="#29292E"/>
<path d="M98.9344 29.6192C98.9344 29.6765 98.9057 30.0779 98.8484 30.8234H87.1789C87.3891 31.7791 87.8861 32.5341 88.6698 33.0885C89.4535 33.6428 90.4284 33.9199 91.5944 33.9199C92.3972 33.9199 93.1044 33.8053 93.7161 33.5759C94.3469 33.3274 94.9299 32.9451 95.4651 32.429L97.8448 35.0095C96.3921 36.6724 94.2704 37.5039 91.4797 37.5039C89.7402 37.5039 88.2015 37.1694 86.8635 36.5004C85.5255 35.8123 84.4933 34.8661 83.7669 33.6619C83.0406 32.4577 82.6774 31.091 82.6774 29.5618C82.6774 28.0518 83.031 26.6946 83.7383 25.4904C84.4646 24.2671 85.449 23.3209 86.6915 22.6519C87.953 21.9638 89.3579 21.6197 90.9062 21.6197C92.4163 21.6197 93.783 21.9446 95.0063 22.5945C96.2297 23.2444 97.1854 24.1811 97.8735 25.4044C98.5807 26.6086 98.9344 28.0135 98.9344 29.6192ZM90.9349 25.003C89.9218 25.003 89.0712 25.2897 88.3831 25.8631C87.695 26.4366 87.2745 27.2203 87.1215 28.2142H94.7196C94.5667 27.2394 94.1462 26.4652 93.458 25.8918C92.7699 25.2993 91.9289 25.003 90.9349 25.003Z" fill="#29292E"/>
<path d="M65 15.9105V10.4047C65 7.97204 66.5099 6 68.3725 6H86.5H104.627C106.49 6 108 7.97204 108 10.4047V41.2374C108 43.67 106.49 45.642 104.627 45.642H98.7255L100.698 57.6637M100.698 57.6637L92.5 47.8444H68.3725C66.5099 47.8444 65 45.8723 65 43.4397V41.2374M100.698 57.6637C100.87 58.7144 101.303 58.3926 100.698 57.6637Z" stroke="url(#paint0_linear)" stroke-width="4.30079"/>
<path d="M122.118 36.3887C121.073 37.6582 119.628 38.293 117.782 38.293C116.083 38.293 114.784 37.8047 113.886 36.8281C112.997 35.8516 112.543 34.4209 112.523 32.5361V22.1504H116.757V32.3896C116.757 34.04 117.509 34.8652 119.013 34.8652C120.448 34.8652 121.435 34.3672 121.972 33.3711V22.1504H126.22V38H122.235L122.118 36.3887ZM136.708 38.293C134.384 38.293 132.489 37.5801 131.024 36.1543C129.569 34.7285 128.842 32.8291 128.842 30.4561V30.0459C128.842 28.4541 129.149 27.0332 129.765 25.7832C130.38 24.5234 131.249 23.5566 132.372 22.8828C133.505 22.1992 134.794 21.8574 136.239 21.8574C138.407 21.8574 140.111 22.541 141.352 23.9082C142.602 25.2754 143.227 27.2139 143.227 29.7236V31.4521H133.134C133.271 32.4873 133.681 33.3174 134.364 33.9424C135.058 34.5674 135.932 34.8799 136.986 34.8799C138.617 34.8799 139.892 34.2891 140.81 33.1074L142.89 35.4365C142.255 36.335 141.396 37.0381 140.312 37.5459C139.228 38.0439 138.026 38.293 136.708 38.293ZM136.225 25.2852C135.385 25.2852 134.701 25.5684 134.174 26.1348C133.656 26.7012 133.324 27.5117 133.178 28.5664H139.066V28.2295C139.047 27.292 138.793 26.5693 138.305 26.0615C137.816 25.5439 137.123 25.2852 136.225 25.2852ZM154.228 33.6201C154.228 33.1025 153.969 32.6973 153.451 32.4043C152.943 32.1016 152.123 31.833 150.99 31.5986C147.221 30.8076 145.336 29.2061 145.336 26.7939C145.336 25.3877 145.917 24.2158 147.079 23.2783C148.251 22.3311 149.779 21.8574 151.664 21.8574C153.676 21.8574 155.282 22.3311 156.483 23.2783C157.694 24.2256 158.3 25.4561 158.3 26.9697H154.066C154.066 26.3643 153.871 25.8662 153.48 25.4756C153.09 25.0752 152.479 24.875 151.649 24.875C150.937 24.875 150.385 25.0361 149.994 25.3584C149.604 25.6807 149.408 26.0908 149.408 26.5889C149.408 27.0576 149.628 27.4385 150.067 27.7314C150.517 28.0146 151.269 28.2637 152.323 28.4785C153.378 28.6836 154.267 28.918 154.989 29.1816C157.226 30.002 158.344 31.4229 158.344 33.4443C158.344 34.8896 157.724 36.0615 156.483 36.96C155.243 37.8486 153.642 38.293 151.679 38.293C150.351 38.293 149.169 38.0586 148.134 37.5898C147.108 37.1113 146.303 36.4619 145.717 35.6416C145.131 34.8115 144.838 33.918 144.838 32.9609H148.852C148.891 33.7129 149.169 34.2891 149.687 34.6895C150.204 35.0898 150.897 35.29 151.767 35.29C152.577 35.29 153.188 35.1387 153.598 34.8359C154.018 34.5234 154.228 34.1182 154.228 33.6201ZM166.151 18.2539V22.1504H168.861V25.2559H166.151V33.166C166.151 33.752 166.264 34.1719 166.488 34.4258C166.713 34.6797 167.143 34.8066 167.777 34.8066C168.246 34.8066 168.661 34.7725 169.022 34.7041V37.9121C168.192 38.166 167.338 38.293 166.459 38.293C163.49 38.293 161.977 36.7939 161.918 33.7959V25.2559H159.604V22.1504H161.918V18.2539H166.151ZM175.688 38H171.439V22.1504H175.688V38ZM171.19 18.0488C171.19 17.4141 171.4 16.8916 171.82 16.4814C172.25 16.0713 172.831 15.8662 173.563 15.8662C174.286 15.8662 174.862 16.0713 175.292 16.4814C175.722 16.8916 175.937 17.4141 175.937 18.0488C175.937 18.6934 175.717 19.2207 175.277 19.6309C174.848 20.041 174.276 20.2461 173.563 20.2461C172.851 20.2461 172.274 20.041 171.835 19.6309C171.405 19.2207 171.19 18.6934 171.19 18.0488ZM178.529 29.9287C178.529 28.3564 178.832 26.9551 179.438 25.7246C180.043 24.4941 180.912 23.542 182.045 22.8682C183.188 22.1943 184.511 21.8574 186.015 21.8574C188.153 21.8574 189.896 22.5117 191.244 23.8203C192.602 25.1289 193.358 26.9062 193.515 29.1523L193.544 30.2363C193.544 32.668 192.865 34.6211 191.508 36.0957C190.15 37.5605 188.329 38.293 186.044 38.293C183.759 38.293 181.933 37.5605 180.565 36.0957C179.208 34.6309 178.529 32.6387 178.529 30.1191V29.9287ZM182.763 30.2363C182.763 31.7402 183.046 32.8926 183.612 33.6934C184.179 34.4844 184.989 34.8799 186.044 34.8799C187.069 34.8799 187.87 34.4893 188.446 33.708C189.022 32.917 189.311 31.6572 189.311 29.9287C189.311 28.4541 189.022 27.3115 188.446 26.501C187.87 25.6904 187.06 25.2852 186.015 25.2852C184.979 25.2852 184.179 25.6904 183.612 26.501C183.046 27.3018 182.763 28.5469 182.763 30.2363ZM200.048 22.1504L200.18 23.9814C201.312 22.5654 202.831 21.8574 204.735 21.8574C206.415 21.8574 207.665 22.3506 208.485 23.3369C209.306 24.3232 209.726 25.7979 209.745 27.7607V38H205.512V27.8633C205.512 26.9648 205.316 26.3154 204.926 25.915C204.535 25.5049 203.886 25.2998 202.978 25.2998C201.786 25.2998 200.893 25.8076 200.297 26.8232V38H196.063V22.1504H200.048Z" fill="url(#paint1_linear)"/>
<defs>
<linearGradient id="paint0_linear" x1="65" y1="6" x2="111.677" y2="50.8095" gradientUnits="userSpaceOnUse">
<stop stop-color="#050505"/>
<stop offset="0.703125" stop-color="#FF70F9"/>
<stop offset="0.979167" stop-color="#FF5EF9"/>
</linearGradient>
<linearGradient id="paint1_linear" x1="111" y1="10" x2="128.033" y2="67.4305" gradientUnits="userSpaceOnUse">
<stop stop-color="#050505"/>
<stop offset="0.703125" stop-color="#FF70F9"/>
<stop offset="0.979167" stop-color="#FF5EF9"/>
</linearGradient>
</defs>
</svg>
